<svg width="16" height="16" viewBox="0 0 16 16" fill="none" xmlns="http://www.w3.org/2000/svg">
<path d="M7.99967 11.9429C8.19037 11.9429 8.35023 11.8784 8.47926 11.7494C8.60828 11.6204 8.6728 11.4605 8.6728 11.2698C8.6728 11.0791 8.60828 10.9193 8.47926 10.7902C8.35023 10.6613 8.19037 10.5969 7.99967 10.5969C7.80898 10.5969 7.64912 10.6613 7.52009 10.7902C7.39106 10.9193 7.32655 11.0791 7.32655 11.2698C7.32655 11.4605 7.39106 11.6204 7.52009 11.7494C7.64912 11.8784 7.80898 11.9429 7.99967 11.9429ZM7.99988 8.89815C8.17711 8.89815 8.32551 8.83822 8.44509 8.71836C8.56481 8.59864 8.62467 8.45023 8.62467 8.27315V4.52315C8.62467 4.34607 8.56474 4.1976 8.44488 4.07773C8.32502 3.95801 8.17655 3.89815 7.99947 3.89815C7.82224 3.89815 7.67384 3.95801 7.55426 4.07773C7.43454 4.1976 7.37467 4.34607 7.37467 4.52315V8.27315C7.37467 8.45023 7.43461 8.59864 7.55447 8.71836C7.67433 8.83822 7.8228 8.89815 7.99988 8.89815ZM8.00113 15.9173C6.90613 15.9173 5.8769 15.7095 4.91342 15.294C3.94995 14.8784 3.1119 14.3145 2.39926 13.6021C1.68662 12.8897 1.12238 12.052 0.706549 11.089C0.290855 10.1259 0.0830078 9.09697 0.0830078 8.00211C0.0830078 6.90711 0.290786 5.87787 0.706341 4.9144C1.1219 3.95093 1.68586 3.11287 2.39822 2.40023C3.11058 1.6876 3.94829 1.12336 4.91134 0.707526C5.8744 0.291831 6.90335 0.0839844 7.99822 0.0839844C9.09322 0.0839844 10.1225 0.291762 11.0859 0.707317C12.0494 1.12287 12.8875 1.68683 13.6001 2.39919C14.3127 3.11155 14.877 3.94926 15.2928 4.91232C15.7085 5.87537 15.9163 6.90433 15.9163 7.99919C15.9163 9.09419 15.7086 10.1234 15.293 11.0869C14.8775 12.0504 14.3135 12.8884 13.6011 13.6011C12.8888 14.3137 12.0511 14.8779 11.088 15.2938C10.125 15.7095 9.09599 15.9173 8.00113 15.9173ZM7.99967 14.6673C9.86079 14.6673 11.4372 14.0215 12.7288 12.7298C14.0205 11.4382 14.6663 9.86176 14.6663 8.00065C14.6663 6.13954 14.0205 4.56315 12.7288 3.27148C11.4372 1.97982 9.86079 1.33398 7.99967 1.33398C6.13856 1.33398 4.56217 1.97982 3.27051 3.27148C1.97884 4.56315 1.33301 6.13954 1.33301 8.00065C1.33301 9.86176 1.97884 11.4382 3.27051 12.7298C4.56217 14.0215 6.13856 14.6673 7.99967 14.6673Z" fill="currentColor"/>
</svg>
