<svg width="24" height="24" viewBox="0 0 24 24" fill="none" xmlns="http://www.w3.org/2000/svg">
<mask id="mask0_2324_13656" style="mask-type:alpha" maskUnits="userSpaceOnUse" x="0" y="0" width="24" height="24">
<rect width="24" height="24" fill="#D9D9D9"/>
</mask>
<g mask="url(#mask0_2324_13656)">
<path d="M6.09624 16.8077C5.43341 16.8077 4.85899 16.6074 4.37299 16.2067C3.88716 15.8061 3.56666 15.3141 3.41149 14.7308H3.28849C2.87316 14.7308 2.49691 14.5798 2.15974 14.2778C1.82257 13.9759 1.65399 13.55 1.65399 13V5.30775C1.65399 4.80258 1.82899 4.375 2.17899 4.025C2.52899 3.675 2.95649 3.5 3.46149 3.5H15.0307C15.3307 3.5 15.6141 3.5535 15.8807 3.6605C16.1474 3.76767 16.3807 3.94108 16.5807 4.18075L20.223 8.71925C20.3667 8.90258 20.468 9.09525 20.527 9.29725C20.5858 9.49908 20.6152 9.71667 20.6152 9.95V11.4C21.1217 11.6 21.5368 11.9321 21.8605 12.3963C22.1842 12.8603 22.346 13.3948 22.346 14C22.346 14.7757 22.072 15.4375 21.524 15.9855C20.976 16.5337 20.3142 16.8077 19.5385 16.8077C18.8757 16.8077 18.2977 16.609 17.8047 16.2115C17.3117 15.814 16.9845 15.3204 16.823 14.7308H8.81149C8.63582 15.3141 8.30666 15.8061 7.82399 16.2067C7.34132 16.6074 6.76541 16.8077 6.09624 16.8077ZM3.15374 8.25H7.40399V5H3.46149C3.37183 5 3.29816 5.02883 3.24049 5.0865C3.18266 5.14417 3.15374 5.21792 3.15374 5.30775V8.25ZM8.90374 13.2692H14.3847V5H8.90374V8.25H11.404C11.6167 8.25 11.7948 8.32183 11.9385 8.4655C12.082 8.609 12.1537 8.78717 12.1537 9C12.1537 9.21283 12.082 9.391 11.9385 9.5345C11.7948 9.67817 11.6167 9.75 11.404 9.75H8.90374V13.2692ZM15.8845 9.25H18.7077L15.8845 5.677V9.25ZM6.09624 15.3077C6.46291 15.3077 6.77249 15.1814 7.02499 14.9288C7.27766 14.6763 7.40399 14.3667 7.40399 14C7.40399 13.6333 7.27766 13.3237 7.02499 13.0712C6.77249 12.8186 6.46291 12.6923 6.09624 12.6923C5.72958 12.6923 5.41991 12.8186 5.16724 13.0712C4.91474 13.3237 4.78849 13.6333 4.78849 14C4.78849 14.3667 4.91474 14.6763 5.16724 14.9288C5.41991 15.1814 5.72958 15.3077 6.09624 15.3077ZM19.5385 15.3077C19.9052 15.3077 20.2147 15.1814 20.4672 14.9288C20.7199 14.6763 20.8462 14.3667 20.8462 14C20.8462 13.6333 20.7199 13.3237 20.4672 13.0712C20.2147 12.8186 19.9052 12.6923 19.5385 12.6923C19.1718 12.6923 18.8622 12.8186 18.6095 13.0712C18.357 13.3237 18.2307 13.6333 18.2307 14C18.2307 14.3667 18.357 14.6763 18.6095 14.9288C18.8622 15.1814 19.1718 15.3077 19.5385 15.3077ZM12.4192 22.5058L8.37299 20.4655C8.26916 20.4052 8.22816 20.3189 8.24999 20.2068C8.27183 20.0946 8.34299 20.0385 8.46349 20.0385H11.2115V18.8962C11.2115 18.7321 11.2827 18.6048 11.425 18.5145C11.5673 18.424 11.7154 18.4173 11.8692 18.4943L15.9152 20.5345C16.0192 20.5948 16.0603 20.6811 16.0385 20.7932C16.0167 20.9054 15.9455 20.9615 15.825 20.9615H13.077V22.1038C13.077 22.2679 13.0058 22.3952 12.8635 22.4855C12.7212 22.576 12.5731 22.5828 12.4192 22.5058ZM3.15374 9.75V13C3.17441 13.0898 3.20108 13.1508 3.23374 13.1827C3.26641 13.2147 3.32182 13.2308 3.39999 13.2308C3.56282 12.6602 3.89199 12.1779 4.38749 11.7838C4.88299 11.3894 5.45258 11.1923 6.09624 11.1923C6.34358 11.1923 6.58582 11.2288 6.82299 11.302C7.06033 11.375 7.25399 11.4717 7.40399 11.5922V9.75H3.15374ZM15.8845 13.2692H16.823C16.9473 12.7717 17.2121 12.3285 17.6172 11.9395C18.0224 11.5503 18.5218 11.3384 19.1155 11.3038V10.75H15.8845V13.2692Z" fill="#292C2D"/>
</g>
</svg>
