<svg width="24" height="24" viewBox="0 0 24 24" fill="none" xmlns="http://www.w3.org/2000/svg">
<mask id="mask0_10010_31175" style="mask-type:alpha" maskUnits="userSpaceOnUse" x="0" y="0" width="24" height="24">
<rect width="24" height="24" fill="#D9D9D9"/>
</mask>
<g mask="url(#mask0_10010_31175)">
<path d="M5.00425 19.75C3.65725 19.75 2.52817 19.2947 1.617 18.3842C0.705667 17.4739 0.25 16.3458 0.25 15C0.25 13.6667 0.713167 12.5385 1.6395 11.6155C2.56567 10.6923 3.68583 10.2307 5 10.2307C6.21283 10.2307 7.25192 10.6157 8.11725 11.3855C8.98258 12.1555 9.50633 13.1103 9.6885 14.25H10.8963L8.923 8.75H8C7.7875 8.75 7.60942 8.67808 7.46575 8.53425C7.32192 8.39042 7.25 8.21225 7.25 7.99975C7.25 7.78708 7.32192 7.609 7.46575 7.4655C7.60942 7.32183 7.7875 7.25 8 7.25H11C11.2125 7.25 11.3906 7.32192 11.5343 7.46575C11.6781 7.60958 11.75 7.78775 11.75 8.00025C11.75 8.21292 11.6781 8.391 11.5343 8.5345C11.3906 8.67817 11.2125 8.75 11 8.75H10.5345L11.0577 10.2307H16.4155L14.85 5.923C14.8308 5.86533 14.7988 5.82208 14.7538 5.79325C14.7089 5.76442 14.6577 5.75 14.6 5.75H13C12.7875 5.75 12.6094 5.67808 12.4658 5.53425C12.3219 5.39042 12.25 5.21225 12.25 4.99975C12.25 4.78708 12.3219 4.609 12.4658 4.4655C12.6094 4.32183 12.7875 4.25 13 4.25H14.6C14.9757 4.25 15.3146 4.35283 15.6167 4.5585C15.9191 4.76433 16.1366 5.04358 16.2693 5.39625L18.027 10.2H19C20.3142 10.2 21.4343 10.6632 22.3605 11.5895C23.2868 12.5157 23.75 13.6358 23.75 14.95C23.75 16.2753 23.2891 17.4035 22.3673 18.3345C21.4454 19.2653 20.323 19.7308 19 19.7308C17.8257 19.7308 16.8019 19.3542 15.9288 18.601C15.0558 17.8478 14.5167 16.8975 14.3115 15.75H9.6885C9.50633 16.9 8.97333 17.8542 8.0895 18.6125C7.2055 19.3708 6.17708 19.75 5.00425 19.75ZM5 18.25C5.76033 18.25 6.42317 18.0241 6.9885 17.5723C7.55383 17.1203 7.93333 16.5128 8.127 15.75H6C5.7875 15.75 5.60942 15.6781 5.46575 15.5343C5.32192 15.3904 5.25 15.2122 5.25 14.9998C5.25 14.7871 5.32192 14.609 5.46575 14.4655C5.60942 14.3218 5.7875 14.25 6 14.25H8.127C7.93333 13.477 7.55383 12.8671 6.9885 12.4202C6.42317 11.9734 5.76033 11.75 5 11.75C4.07917 11.75 3.30725 12.0614 2.68425 12.6842C2.06142 13.3073 1.75 14.0792 1.75 15C1.75 15.8975 2.06142 16.6635 2.68425 17.298C3.30725 17.9327 4.07917 18.25 5 18.25ZM12.527 14.25H14.3115C14.382 13.8282 14.5233 13.3785 14.7355 12.901C14.9478 12.4233 15.2476 12.0333 15.6348 11.7308H11.5845L12.527 14.25ZM18.9998 18.25C19.9204 18.25 20.6923 17.9327 21.3155 17.298C21.9385 16.6635 22.25 15.8962 22.25 14.9963C22.25 14.0782 21.9386 13.3077 21.3158 12.6845C20.6928 12.0615 19.9208 11.75 19 11.75C18.909 11.75 18.8314 11.7516 18.7673 11.7548C18.7033 11.7579 18.6321 11.7692 18.5538 11.7885L19.3095 13.802C19.384 13.9982 19.3778 14.1878 19.291 14.371C19.2043 14.5542 19.0618 14.6837 18.8635 14.7595C18.6673 14.834 18.475 14.8278 18.2865 14.741C18.0978 14.6543 17.9658 14.5118 17.8905 14.3135L17.1848 12.3152C16.7296 12.6179 16.3767 13.0058 16.126 13.4788C15.8753 13.9519 15.75 14.459 15.75 15C15.75 15.8975 16.0614 16.6635 16.6842 17.298C17.3071 17.9327 18.0789 18.25 18.9998 18.25Z" fill="#292C2D"/>
</g>
</svg>
