<svg width="24" height="24" viewBox="0 0 24 24" fill="none" xmlns="http://www.w3.org/2000/svg">
<mask id="mask0_5959_236341" style="mask-type:alpha" maskUnits="userSpaceOnUse" x="0" y="0" width="24" height="24">
<rect width="24" height="24" fill="#D9D9D9"/>
</mask>
<g mask="url(#mask0_5959_236341)">
<path d="M4.30775 19.5C3.80258 19.5 3.375 19.325 3.025 18.975C2.675 18.625 2.5 18.1974 2.5 17.6923V6.30775C2.5 5.80258 2.675 5.375 3.025 5.025C3.375 4.675 3.80258 4.5 4.30775 4.5H19.6923C20.1974 4.5 20.625 4.675 20.975 5.025C21.325 5.375 21.5 5.80258 21.5 6.30775V17.6923C21.5 18.1974 21.325 18.625 20.975 18.975C20.625 19.325 20.1974 19.5 19.6923 19.5H4.30775ZM4.30775 18H19.6923C19.7693 18 19.8398 17.9679 19.9038 17.9038C19.9679 17.8398 20 17.7692 20 17.6923V6.30775C20 6.23075 19.9679 6.16025 19.9038 6.09625C19.8398 6.03208 19.7693 6 19.6923 6H4.30775C4.23075 6 4.16025 6.03208 4.09625 6.09625C4.03208 6.16025 4 6.23075 4 6.30775V17.6923C4 17.7692 4.03208 17.8398 4.09625 17.9038C4.16025 17.9679 4.23075 18 4.30775 18ZM10.25 14.25H7C6.78717 14.25 6.609 14.3218 6.4655 14.4655C6.32183 14.609 6.25 14.7872 6.25 15C6.25 15.2128 6.32183 15.391 6.4655 15.5345C6.609 15.6782 6.78717 15.75 7 15.75H8.25V16C8.25 16.2128 8.32183 16.391 8.4655 16.5345C8.609 16.6782 8.78717 16.75 9 16.75C9.21283 16.75 9.391 16.6782 9.5345 16.5345C9.67817 16.391 9.75 16.2128 9.75 16V15.75H10.8652C11.1166 15.75 11.3269 15.6654 11.4963 15.4963C11.6654 15.3269 11.75 15.1166 11.75 14.8652V12.1348C11.75 11.8834 11.6654 11.6731 11.4963 11.5037C11.3269 11.3346 11.1166 11.25 10.8652 11.25H7.75V9.75H11C11.2128 9.75 11.391 9.67817 11.5345 9.5345C11.6782 9.391 11.75 9.21283 11.75 9C11.75 8.78717 11.6782 8.609 11.5345 8.4655C11.391 8.32183 11.2128 8.25 11 8.25H9.75V8C9.75 7.78717 9.67817 7.609 9.5345 7.4655C9.391 7.32183 9.21283 7.25 9 7.25C8.78717 7.25 8.609 7.32183 8.4655 7.4655C8.32183 7.609 8.25 7.78717 8.25 8V8.25H7.13475C6.88342 8.25 6.67308 8.33458 6.50375 8.50375C6.33458 8.67308 6.25 8.88342 6.25 9.13475V11.8652C6.25 12.1166 6.33458 12.3269 6.50375 12.4963C6.67308 12.6654 6.88342 12.75 7.13475 12.75H10.25V14.25ZM16.1557 15.9595L17.3828 14.7327C17.4596 14.6558 17.4787 14.5721 17.4402 14.4817C17.4019 14.3914 17.3308 14.3463 17.227 14.3463H14.773C14.6692 14.3463 14.5981 14.3914 14.5598 14.4817C14.5213 14.5721 14.5404 14.6558 14.6173 14.7327L15.8443 15.9595C15.8878 16.0032 15.9397 16.025 16 16.025C16.0603 16.025 16.1122 16.0032 16.1557 15.9595ZM14.773 9.90375H17.227C17.3308 9.90375 17.4019 9.85858 17.4402 9.76825C17.4787 9.67792 17.4596 9.59425 17.3828 9.51725L16.1557 8.2905C16.1122 8.24683 16.0603 8.225 16 8.225C15.9397 8.225 15.8878 8.24683 15.8443 8.2905L14.6173 9.51725C14.5404 9.59425 14.5213 9.67792 14.5598 9.76825C14.5981 9.85858 14.6692 9.90375 14.773 9.90375Z" fill="#292C2D"/>
</g>
</svg>
