<svg width="20" height="20" viewBox="0 0 20 20" fill="none" xmlns="http://www.w3.org/2000/svg">
<mask id="mask0_10531_20372" style="mask-type:alpha" maskUnits="userSpaceOnUse" x="0" y="0" width="20" height="20">
<rect width="20" height="20" fill="#D9D9D9"/>
</mask>
<g mask="url(#mask0_10531_20372)">
<path d="M4.17037 13.9577C3.04787 13.9577 2.10697 13.5783 1.34766 12.8196C0.588218 12.0609 0.208496 11.1209 0.208496 9.99935C0.208496 8.88824 0.594468 7.9481 1.36641 7.17893C2.13822 6.40963 3.07169 6.02497 4.16683 6.02497C5.17752 6.02497 6.04343 6.34574 6.76454 6.98727C7.48565 7.62893 7.92211 8.42463 8.07391 9.37435H9.08037L7.436 4.79102H6.66683C6.48975 4.79102 6.34134 4.73109 6.22162 4.61122C6.10176 4.49136 6.04183 4.34289 6.04183 4.16581C6.04183 3.98859 6.10176 3.84018 6.22162 3.7206C6.34134 3.60088 6.48975 3.54102 6.66683 3.54102H9.16683C9.34391 3.54102 9.49232 3.60095 9.61204 3.72081C9.7319 3.84067 9.79183 3.98914 9.79183 4.16622C9.79183 4.34345 9.7319 4.49185 9.61204 4.61143C9.49232 4.73116 9.34391 4.79102 9.16683 4.79102H8.77891L9.21495 6.02497H13.6797L12.3752 2.43518C12.3592 2.38713 12.3325 2.35108 12.295 2.32706C12.2576 2.30303 12.2149 2.29102 12.1668 2.29102H10.8335C10.6564 2.29102 10.508 2.23109 10.3883 2.11122C10.2684 1.99136 10.2085 1.84289 10.2085 1.66581C10.2085 1.48858 10.2684 1.34018 10.3883 1.2206C10.508 1.10088 10.6564 1.04102 10.8335 1.04102H12.1668C12.4799 1.04102 12.7623 1.12671 13.0141 1.2981C13.2661 1.46963 13.4473 1.70233 13.5579 1.99622L15.0227 5.99935H15.8335C16.9286 5.99935 17.8621 6.38532 18.6339 7.15727C19.4059 7.92907 19.7918 8.86254 19.7918 9.95768C19.7918 11.0621 19.4077 12.0023 18.6395 12.7781C17.8713 13.5538 16.936 13.9416 15.8335 13.9416C14.8549 13.9416 14.0018 13.6278 13.2741 13.0002C12.5466 12.3725 12.0974 11.5806 11.9264 10.6244H8.07391C7.92211 11.5827 7.47794 12.3778 6.74141 13.0098C6.00475 13.6417 5.14773 13.9577 4.17037 13.9577ZM4.16683 12.7077C4.80044 12.7077 5.3528 12.5194 5.82391 12.1429C6.29502 11.7662 6.61127 11.26 6.77266 10.6244H5.00016C4.82308 10.6244 4.67468 10.5644 4.55495 10.4446C4.43509 10.3247 4.37516 10.1762 4.37516 9.99914C4.37516 9.82192 4.43509 9.67352 4.55495 9.55393C4.67468 9.43421 4.82308 9.37435 5.00016 9.37435H6.77266C6.61127 8.73018 6.29502 8.22192 5.82391 7.84956C5.3528 7.4772 4.80044 7.29102 4.16683 7.29102C3.39947 7.29102 2.7562 7.55053 2.23704 8.06956C1.71801 8.58873 1.4585 9.23199 1.4585 9.99935C1.4585 10.7473 1.71801 11.3856 2.23704 11.9144C2.7562 12.4432 3.39947 12.7077 4.16683 12.7077ZM10.4393 9.37435H11.9264C11.9852 9.02282 12.1029 8.6481 12.2797 8.25018C12.4567 7.85213 12.7065 7.52706 13.0291 7.27497H9.65391L10.4393 9.37435ZM15.8333 12.7077C16.6005 12.7077 17.2438 12.4432 17.7631 11.9144C18.2822 11.3856 18.5418 10.7462 18.5418 9.99623C18.5418 9.23123 18.2823 8.58907 17.7633 8.06977C17.2441 7.5506 16.6009 7.29102 15.8335 7.29102C15.7577 7.29102 15.693 7.29234 15.6395 7.29497C15.5862 7.29761 15.5269 7.30699 15.4616 7.3231L16.0914 9.00102C16.1535 9.16449 16.1484 9.32255 16.076 9.47518C16.0038 9.62782 15.885 9.73574 15.7197 9.79893C15.5563 9.86102 15.396 9.85588 15.2389 9.78352C15.0817 9.7113 14.9717 9.59254 14.9089 9.42727L14.3208 7.76206C13.9415 8.01428 13.6474 8.33748 13.4385 8.73164C13.2296 9.12595 13.1252 9.54852 13.1252 9.99935C13.1252 10.7473 13.3847 11.3856 13.9037 11.9144C14.4227 12.4432 15.0659 12.7077 15.8333 12.7077ZM10.7693 17.4673V18.4191C10.7693 18.5566 10.71 18.6629 10.5914 18.7379C10.4729 18.8129 10.3488 18.8178 10.2189 18.7527L6.84954 17.0539C6.76301 17.0037 6.72905 16.9318 6.74766 16.8383C6.76627 16.7448 6.82537 16.6981 6.92495 16.6981H9.21495V15.7462C9.21495 15.6087 9.27426 15.5025 9.39287 15.4275C9.51134 15.3525 9.63551 15.3475 9.76537 15.4127L13.1347 17.1114C13.2213 17.1617 13.2552 17.2336 13.2366 17.3271C13.218 17.4205 13.159 17.4673 13.0595 17.4673H10.7693Z" fill="#292C2D"/>
</g>
</svg>
