<svg width="24" height="24" viewBox="0 0 24 24" fill="none" xmlns="http://www.w3.org/2000/svg">
<mask id="mask0_2901_16480" style="mask-type:alpha" maskUnits="userSpaceOnUse" x="0" y="0" width="24" height="24">
<rect width="24" height="24" fill="#D9D9D9"/>
</mask>
<g mask="url(#mask0_2901_16480)">
<path d="M5.61525 14.5V15.4423C5.61525 15.7361 5.51233 15.9858 5.3065 16.1915C5.10067 16.3972 4.85067 16.5 4.5565 16.5C4.2625 16.5 4.01292 16.3972 3.80775 16.1915C3.60258 15.9858 3.5 15.7361 3.5 15.4423V8.3885C3.5 8.28467 3.50675 8.18083 3.52025 8.077C3.53375 7.97317 3.55642 7.87367 3.58825 7.7785L5.379 2.7155C5.49883 2.35533 5.716 2.06275 6.0305 1.83775C6.345 1.61258 6.697 1.5 7.0865 1.5H16.9135C17.303 1.5 17.655 1.61258 17.9695 1.83775C18.284 2.06275 18.5012 2.35533 18.621 2.7155L20.4117 7.7785C20.4436 7.87367 20.4662 7.97317 20.4797 8.077C20.4932 8.18083 20.5 8.28467 20.5 8.3885V15.4423C20.5 15.7361 20.3971 15.9858 20.1913 16.1915C19.9853 16.3972 19.7353 16.5 19.4413 16.5C19.1471 16.5 18.8974 16.3972 18.6923 16.1915C18.4873 15.9858 18.3848 15.7361 18.3848 15.4423V14.5H5.61525ZM5.60775 6.577H18.3923L17.2078 3.202C17.1821 3.13783 17.1436 3.08817 17.0922 3.053C17.0409 3.01767 16.98 3 16.9095 3H7.0905C7.02 3 6.95908 3.01767 6.90775 3.053C6.85642 3.08817 6.81792 3.13783 6.79225 3.202L5.60775 6.577ZM7.46375 11.8463C7.82758 11.8463 8.13617 11.7188 8.3895 11.464C8.64267 11.2093 8.76925 10.9001 8.76925 10.5363C8.76925 10.1724 8.64192 9.86383 8.38725 9.6105C8.13242 9.35733 7.82308 9.23075 7.45925 9.23075C7.09542 9.23075 6.78692 9.35808 6.53375 9.61275C6.28042 9.86758 6.15375 10.1769 6.15375 10.5408C6.15375 10.9046 6.28117 11.2131 6.536 11.4663C6.79067 11.7196 7.09992 11.8463 7.46375 11.8463ZM16.5408 11.8463C16.9046 11.8463 17.2131 11.7188 17.4663 11.464C17.7196 11.2093 17.8462 10.9001 17.8462 10.5363C17.8462 10.1724 17.7188 9.86383 17.464 9.6105C17.2093 9.35733 16.9001 9.23075 16.5363 9.23075C16.1724 9.23075 15.8638 9.35808 15.6105 9.61275C15.3573 9.86758 15.2308 10.1769 15.2308 10.5408C15.2308 10.9046 15.3581 11.2131 15.6128 11.4663C15.8676 11.7196 16.1769 11.8463 16.5408 11.8463ZM12.9327 20.9615V22.1038C12.9327 22.2688 12.8616 22.3963 12.7192 22.4863C12.5769 22.5763 12.4278 22.5822 12.272 22.504L8.22875 20.4655C8.12492 20.4052 8.08425 20.3189 8.10675 20.2068C8.12908 20.0946 8.19992 20.0385 8.31925 20.0385H11.0673V18.8963C11.0673 18.7313 11.1384 18.6038 11.2808 18.5138C11.4231 18.4238 11.5722 18.4178 11.728 18.496L15.7712 20.5345C15.8751 20.5948 15.9157 20.6811 15.8932 20.7933C15.8709 20.9054 15.8001 20.9615 15.6807 20.9615H12.9327ZM5 13H19V8.077H5V13Z" fill="#292C2D"/>
</g>
</svg>
