<svg width="40" height="40" viewBox="0 0 40 40" fill="none" xmlns="http://www.w3.org/2000/svg">
<path d="M20 39.0845C19.6462 39.0845 19.2964 39.0126 18.9506 38.8687C18.6049 38.7247 18.2867 38.5198 17.9962 38.2538L1.74628 22.0039C1.48028 21.7133 1.27531 21.3952 1.13138 21.0494C0.987477 20.7037 0.915527 20.3539 0.915527 20C0.915527 19.6462 0.986228 19.2931 1.12763 18.9406C1.26906 18.5882 1.47528 18.267 1.74628 17.977L17.9962 1.74628C18.2867 1.45844 18.6049 1.24803 18.9506 1.11503C19.2964 0.982027 19.6462 0.915527 20 0.915527C20.3539 0.915527 20.707 0.983277 21.0594 1.11878C21.4118 1.25428 21.733 1.46344 22.0231 1.74628L38.2538 17.977C38.5366 18.267 38.7458 18.5867 38.8813 18.936C39.0168 19.2854 39.0845 19.6401 39.0845 20C39.0845 20.3539 39.018 20.7037 38.885 21.0494C38.752 21.3952 38.5416 21.7133 38.2538 22.0039L22.0231 38.2538C21.733 38.5248 21.4134 38.731 21.064 38.8724C20.7147 39.0138 20.36 39.0845 20 39.0845ZM20.4424 36.623L36.623 20.4424C36.7384 20.3398 36.7961 20.1924 36.7961 20C36.7961 19.8077 36.7384 19.6602 36.623 19.5577L20.4424 3.37703C20.3398 3.26163 20.1924 3.20393 20 3.20393C19.8077 3.20393 19.6602 3.26163 19.5577 3.37703L3.37703 19.5577C3.26163 19.6602 3.20393 19.8077 3.20393 20C3.20393 20.1924 3.26163 20.3398 3.37703 20.4424L19.5577 36.623C19.6602 36.7384 19.8077 36.7961 20 36.7961C20.1924 36.7961 20.3398 36.7384 20.4424 36.623ZM20.0095 22.1731C20.3339 22.1731 20.6026 22.0645 20.8154 21.8472C21.0282 21.6299 21.1346 21.3603 21.1346 21.0385V12.077C21.1346 11.7552 21.0251 11.4857 20.8059 11.2684C20.5868 11.0511 20.315 10.9424 19.9906 10.9424C19.6661 10.9424 19.3975 11.0511 19.1847 11.2684C18.9718 11.4857 18.8654 11.7552 18.8654 12.077V21.0385C18.8654 21.3603 18.975 21.6299 19.1941 21.8472C19.4132 22.0645 19.685 22.1731 20.0095 22.1731ZM20 27.0385C20.3423 27.0385 20.6362 26.9157 20.8817 26.6702C21.1273 26.4247 21.25 26.1308 21.25 25.7885C21.25 25.4462 21.1273 25.1523 20.8817 24.9068C20.6362 24.6612 20.3423 24.5385 20 24.5385C19.6577 24.5385 19.3638 24.6612 19.1183 24.9068C18.8728 25.1523 18.75 25.4462 18.75 25.7885C18.75 26.1308 18.8728 26.4247 19.1183 26.6702C19.3638 26.9157 19.6577 27.0385 20 27.0385Z" fill="#99B5DC"/>
</svg>
