<svg width="24" height="24" viewBox="0 0 24 24" fill="none" xmlns="http://www.w3.org/2000/svg">
<mask id="mask0_3113_10901" style="mask-type:alpha" maskUnits="userSpaceOnUse" x="0" y="0" width="24" height="24">
<rect width="24" height="24" fill="#D9D9D9"/>
</mask>
<g mask="url(#mask0_3113_10901)">
<path d="M5.30775 21.5C4.80908 21.5 4.38308 21.3234 4.02975 20.9703C3.67658 20.6169 3.5 20.1909 3.5 19.6923V8.49425C3.2065 8.34292 2.96642 8.12783 2.77975 7.849C2.59325 7.57017 2.5 7.24867 2.5 6.8845V4.30775C2.5 3.80908 2.67658 3.38308 3.02975 3.02975C3.38308 2.67658 3.80908 2.5 4.30775 2.5H19.6923C20.1909 2.5 20.6169 2.67658 20.9703 3.02975C21.3234 3.38308 21.5 3.80908 21.5 4.30775V6.8845C21.5 7.24867 21.4068 7.57017 21.2203 7.849C21.0336 8.12783 20.7935 8.34292 20.5 8.49425V19.6923C20.5 20.1909 20.3234 20.6169 19.9703 20.9703C19.6169 21.3234 19.1909 21.5 18.6923 21.5H5.30775ZM4.30775 7.19225H19.6923C19.7821 7.19225 19.8558 7.16342 19.9135 7.10575C19.9712 7.04808 20 6.97433 20 6.8845V4.30775C20 4.21792 19.9712 4.14417 19.9135 4.0865C19.8558 4.02883 19.7821 4 19.6923 4H4.30775C4.21792 4 4.14417 4.02883 4.0865 4.0865C4.02883 4.14417 4 4.21792 4 4.30775V6.8845C4 6.97433 4.02883 7.04808 4.0865 7.10575C4.14417 7.16342 4.21792 7.19225 4.30775 7.19225ZM9.9135 13.4327H14.0962C14.3026 13.4327 14.4728 13.3642 14.6068 13.227C14.7408 13.0897 14.8077 12.9178 14.8077 12.7115C14.8077 12.5052 14.7408 12.335 14.6068 12.201C14.4728 12.067 14.3026 12 14.0962 12H9.90375C9.69742 12 9.52725 12.067 9.39325 12.201C9.25925 12.335 9.19225 12.5052 9.19225 12.7115C9.19225 12.9178 9.26083 13.0897 9.398 13.227C9.53517 13.3642 9.707 13.4327 9.9135 13.4327Z" fill="#292C2D"/>
</g>
</svg>
