<svg width="24" height="24" viewBox="0 0 24 24" fill="none" xmlns="http://www.w3.org/2000/svg">
<mask id="mask0_2900_3199" style="mask-type:alpha" maskUnits="userSpaceOnUse" x="0" y="0" width="24" height="24">
<rect width="24" height="24" fill="#D9D9D9"/>
</mask>
<g mask="url(#mask0_2900_3199)">
<path d="M7.09725 18.1538C6.33375 18.1538 5.68434 17.8863 5.149 17.3515C4.61384 16.8168 4.34625 16.1676 4.34625 15.4038H3.25C2.994 15.4038 2.77934 15.3171 2.606 15.1438C2.43284 14.9706 2.34625 14.7559 2.34625 14.4998V12.6538C2.34625 11.6179 2.71225 10.7339 3.44425 10.0018C4.17625 9.26975 5.06025 8.90375 6.09625 8.90375H8.0385C8.53567 8.90375 8.96125 9.08075 9.31525 9.43475C9.66925 9.78875 9.84625 10.2143 9.84625 10.7115V13.9038H13.7115L17.3463 9.4V6.8075C17.3463 6.71783 17.3174 6.64417 17.2598 6.5865C17.2019 6.52867 17.1282 6.49975 17.0385 6.49975H15.0963C14.8838 6.49975 14.7056 6.42792 14.5618 6.28425C14.4181 6.14042 14.3463 5.96217 14.3463 5.7495C14.3463 5.537 14.4181 5.35892 14.5618 5.21525C14.7056 5.07175 14.8838 5 15.0963 5H17.0385C17.5357 5 17.9613 5.177 18.3153 5.531C18.6693 5.885 18.8463 6.3105 18.8463 6.8075V9.27075C18.8463 9.48758 18.8121 9.68908 18.7438 9.87525C18.6756 10.0613 18.5808 10.2361 18.4595 10.3998L15.023 14.721C14.8585 14.9333 14.6491 15.1003 14.3948 15.2218C14.1406 15.3431 13.8763 15.4038 13.602 15.4038H9.84625C9.84625 16.1666 9.579 16.8156 9.0445 17.3508C8.51 17.8861 7.86092 18.1538 7.09725 18.1538ZM7.09625 16.6538C7.44359 16.6538 7.73875 16.5323 7.98175 16.2893C8.22475 16.0463 8.34625 15.7511 8.34625 15.4038H5.84625C5.84625 15.7511 5.96767 16.0463 6.2105 16.2893C6.4535 16.5323 6.74875 16.6538 7.09625 16.6538ZM9.09625 7.49975H6.09625C5.88375 7.49975 5.70559 7.42792 5.56175 7.28425C5.41809 7.14042 5.34625 6.96217 5.34625 6.7495C5.34625 6.537 5.41809 6.35892 5.56175 6.21525C5.70559 6.07175 5.88375 6 6.09625 6H9.09625C9.30875 6 9.48684 6.07183 9.6305 6.2155C9.77434 6.35933 9.84625 6.53758 9.84625 6.75025C9.84625 6.96275 9.77434 7.14083 9.6305 7.2845C9.48684 7.428 9.30875 7.49975 9.09625 7.49975ZM18.905 18.1538C18.1413 18.1538 17.4919 17.8865 16.9568 17.352C16.4214 16.8175 16.1538 16.1684 16.1538 15.4048C16.1538 14.6413 16.421 13.9918 16.9555 13.4565C17.49 12.9213 18.1391 12.6538 18.9028 12.6538C19.6663 12.6538 20.3157 12.921 20.851 13.4555C21.3862 13.99 21.6538 14.639 21.6538 15.4025C21.6538 16.1662 21.3865 16.8156 20.852 17.3508C20.3175 17.8861 19.6685 18.1538 18.905 18.1538ZM18.9038 16.6538C19.2513 16.6538 19.5465 16.5323 19.7895 16.2893C20.0323 16.0463 20.1538 15.7511 20.1538 15.4038C20.1538 15.0563 20.0323 14.761 19.7895 14.518C19.5465 14.2752 19.2513 14.1538 18.9038 14.1538C18.5564 14.1538 18.2613 14.2752 18.0183 14.518C17.7753 14.761 17.6538 15.0563 17.6538 15.4038C17.6538 15.7511 17.7753 16.0463 18.0183 16.2893C18.2613 16.5323 18.5564 16.6538 18.9038 16.6538ZM3.84625 13.9038H8.34625V10.7115C8.34625 10.6217 8.31742 10.5479 8.25975 10.4903C8.20192 10.4326 8.12817 10.4038 8.0385 10.4038H6.09625C5.47742 10.4038 4.94767 10.6241 4.507 11.0648C4.0665 11.5053 3.84625 12.0349 3.84625 12.6538V13.9038Z" fill="#292C2D"/>
</g>
</svg>
