<svg width="24" height="24" viewBox="0 0 24 24" fill="none" xmlns="http://www.w3.org/2000/svg">
<mask id="mask0_2324_13643" style="mask-type:alpha" maskUnits="userSpaceOnUse" x="0" y="0" width="24" height="24">
<rect width="24" height="24" fill="#D9D9D9"/>
</mask>
<g mask="url(#mask0_2324_13643)">
<path d="M13.0193 20.9616V22.1038C13.0193 22.2688 12.9481 22.3963 12.8058 22.4863C12.6634 22.5763 12.5143 22.5822 12.3585 22.5041L8.3155 20.4656C8.21167 20.4052 8.17092 20.319 8.19325 20.2068C8.21559 20.0946 8.28642 20.0386 8.40575 20.0386H11.1538V18.8963C11.1538 18.7313 11.2249 18.6038 11.3673 18.5138C11.5096 18.4238 11.6587 18.4179 11.8145 18.4961L15.8578 20.5346C15.9616 20.5949 16.0023 20.6811 15.98 20.7933C15.9575 20.9055 15.8866 20.9616 15.7673 20.9616H13.0193ZM7.09725 16.8078C6.33375 16.8078 5.68434 16.5404 5.149 16.0056C4.61384 15.4709 4.34625 14.8216 4.34625 14.0578H3.25C2.994 14.0578 2.77934 13.9711 2.606 13.7978C2.43284 13.6246 2.34625 13.41 2.34625 13.1538V11.3078C2.34625 10.272 2.71225 9.38797 3.44425 8.6558C4.17625 7.9238 5.06025 7.5578 6.09625 7.5578H8.0385C8.53567 7.5578 8.96125 7.7348 9.31525 8.0888C9.66925 8.4428 9.84625 8.86839 9.84625 9.36555V12.5578H13.7115L17.3463 8.05405V5.46155C17.3463 5.37189 17.3174 5.29822 17.2598 5.24055C17.2019 5.18272 17.1282 5.1538 17.0385 5.1538H15.0963C14.8838 5.1538 14.7056 5.08197 14.5618 4.9383C14.4181 4.79447 14.3463 4.61622 14.3463 4.40355C14.3463 4.19105 14.4181 4.01297 14.5618 3.8693C14.7056 3.7258 14.8838 3.65405 15.0963 3.65405H17.0385C17.5357 3.65405 17.9613 3.83105 18.3153 4.18505C18.6693 4.53905 18.8463 4.96455 18.8463 5.46155V7.9248C18.8463 8.14164 18.8121 8.34314 18.7438 8.5293C18.6756 8.7153 18.5808 8.89014 18.4595 9.0538L15.023 13.3751C14.8585 13.5874 14.6491 13.7543 14.3948 13.8758C14.1406 13.9971 13.8763 14.0578 13.602 14.0578H9.84625C9.84625 14.8206 9.579 15.4696 9.0445 16.0048C8.51 16.5401 7.86092 16.8078 7.09725 16.8078ZM7.09625 15.3078C7.44359 15.3078 7.73875 15.1863 7.98175 14.9433C8.22475 14.7003 8.34625 14.4051 8.34625 14.0578H5.84625C5.84625 14.4051 5.96767 14.7003 6.2105 14.9433C6.4535 15.1863 6.74875 15.3078 7.09625 15.3078ZM9.09625 6.1538H6.09625C5.88375 6.1538 5.70559 6.08197 5.56175 5.9383C5.41809 5.79447 5.34625 5.61622 5.34625 5.40355C5.34625 5.19105 5.41809 5.01297 5.56175 4.8693C5.70559 4.7258 5.88375 4.65405 6.09625 4.65405H9.09625C9.30875 4.65405 9.48684 4.72589 9.6305 4.86955C9.77434 5.01339 9.84625 5.19164 9.84625 5.4043C9.84625 5.6168 9.77434 5.79489 9.6305 5.93855C9.48684 6.08205 9.30875 6.1538 9.09625 6.1538ZM18.905 16.8078C18.1413 16.8078 17.4919 16.5406 16.9568 16.0061C16.4214 15.4716 16.1538 14.8225 16.1538 14.0588C16.1538 13.2953 16.421 12.6459 16.9555 12.1106C17.49 11.5754 18.1391 11.3078 18.9028 11.3078C19.6663 11.3078 20.3157 11.5751 20.851 12.1096C21.3862 12.6441 21.6538 13.2931 21.6538 14.0566C21.6538 14.8202 21.3865 15.4696 20.852 16.0048C20.3175 16.5401 19.6685 16.8078 18.905 16.8078ZM18.9038 15.3078C19.2513 15.3078 19.5465 15.1863 19.7895 14.9433C20.0323 14.7003 20.1538 14.4051 20.1538 14.0578C20.1538 13.7103 20.0323 13.4151 19.7895 13.1721C19.5465 12.9292 19.2513 12.8078 18.9038 12.8078C18.5564 12.8078 18.2613 12.9292 18.0183 13.1721C17.7753 13.4151 17.6538 13.7103 17.6538 14.0578C17.6538 14.4051 17.7753 14.7003 18.0183 14.9433C18.2613 15.1863 18.5564 15.3078 18.9038 15.3078ZM3.84625 12.5578H8.34625V9.36555C8.34625 9.27572 8.31742 9.20197 8.25975 9.1443C8.20192 9.08664 8.12817 9.0578 8.0385 9.0578H6.09625C5.47742 9.0578 4.94767 9.27814 4.507 9.7188C4.0665 10.1593 3.84625 10.689 3.84625 11.3078V12.5578Z" fill="#292C2D"/>
</g>
</svg>
