<svg width="20" height="20" viewBox="0 0 20 20" fill="none" xmlns="http://www.w3.org/2000/svg">
<g clip-path="url(#clip0_11152_69888)">
<mask id="mask0_11152_69888" style="mask-type:alpha" maskUnits="userSpaceOnUse" x="0" y="0" width="20" height="20">
<rect width="20" height="20" fill="#D9D9D9"/>
</mask>
<g mask="url(#mask0_11152_69888)">
<path d="M9.37533 16.3074V10.3587L4.16699 7.34263V13.1472C4.16699 13.1899 4.17769 13.2299 4.19908 13.2674C4.22046 13.3048 4.25248 13.3368 4.29512 13.3635L9.37533 16.3074ZM10.6253 16.3074L15.7055 13.3635C15.7482 13.3368 15.7802 13.3048 15.8016 13.2674C15.823 13.2299 15.8337 13.1899 15.8337 13.1472V7.34263L10.6253 10.3587V16.3074ZM9.2472 17.6712L3.67033 14.4612C3.4331 14.3245 3.24824 14.1419 3.11574 13.9133C2.98324 13.6845 2.91699 13.4334 2.91699 13.1599V6.83951C2.91699 6.56603 2.98324 6.31492 3.11574 6.08617C3.24824 5.85756 3.4331 5.67492 3.67033 5.53825L9.2472 2.32826C9.48428 2.19145 9.73533 2.12305 10.0003 2.12305C10.2653 2.12305 10.5164 2.19145 10.7535 2.32826L16.3303 5.53825C16.5675 5.67492 16.7524 5.85756 16.8849 6.08617C17.0174 6.31492 17.0837 6.56603 17.0837 6.83951V13.1599C17.0837 13.4334 17.0174 13.6845 16.8849 13.9133C16.7524 14.1419 16.5675 14.3245 16.3303 14.4612L10.7535 17.6712C10.5164 17.808 10.2653 17.8764 10.0003 17.8764C9.73533 17.8764 9.48428 17.808 9.2472 17.6712ZM13.2135 7.41638L15.1462 6.30742L10.1285 3.40513C10.0858 3.37846 10.0431 3.36513 10.0003 3.36513C9.95755 3.36513 9.91484 3.37846 9.8722 3.40513L8.06283 4.4468L13.2135 7.41638ZM10.0003 9.2818L11.9378 8.15992L6.79199 5.18555L4.85449 6.30742L10.0003 9.2818Z" fill="#209EC6"/>
</g>
</g>
<defs>
<clipPath id="clip0_11152_69888">
<rect width="20" height="20" fill="white"/>
</clipPath>
</defs>
</svg>
