<svg width="24" height="24" viewBox="0 0 24 24" fill="none" xmlns="http://www.w3.org/2000/svg">
<mask id="mask0_3403_14569" style="mask-type:alpha" maskUnits="userSpaceOnUse" x="0" y="0" width="24" height="24">
<rect width="24" height="24" fill="#D9D9D9"/>
</mask>
<g mask="url(#mask0_3403_14569)">
<path d="M6.05375 19H8.25C8.4625 19 8.64067 19.0719 8.7845 19.2158C8.92817 19.3596 9 19.5378 9 19.7502C9 19.9629 8.92817 20.141 8.7845 20.2845C8.64067 20.4282 8.4625 20.5 8.25 20.5H4.404C4.14783 20.5 3.93317 20.4133 3.76 20.24C3.58667 20.0668 3.5 19.8522 3.5 19.596V15.75C3.5 15.5375 3.57192 15.3593 3.71575 15.2155C3.85958 15.0718 4.03775 15 4.25025 15C4.46292 15 4.641 15.0718 4.7845 15.2155C4.92817 15.3593 5 15.5375 5 15.75V17.9462L7.823 15.123C7.9615 14.9847 8.13558 14.9138 8.34525 14.9105C8.55492 14.9073 8.73217 14.9782 8.877 15.123C9.02183 15.2678 9.09425 15.4435 9.09425 15.65C9.09425 15.8563 9.02183 16.032 8.877 16.177L6.05375 19ZM19 6.05375L16.177 8.877C16.0385 9.01533 15.8644 9.08617 15.6547 9.0895C15.4451 9.09267 15.2678 9.02183 15.123 8.877C14.9782 8.73217 14.9057 8.5565 14.9057 8.35C14.9057 8.14367 14.9782 7.968 15.123 7.823L17.9462 5H15.75C15.5375 5 15.3593 4.92808 15.2155 4.78425C15.0718 4.64042 15 4.46225 15 4.24975C15 4.03708 15.0718 3.859 15.2155 3.7155C15.3593 3.57183 15.5375 3.5 15.75 3.5H19.596C19.8522 3.5 20.0668 3.58667 20.24 3.76C20.4133 3.93317 20.5 4.14783 20.5 4.404V8.25C20.5 8.4625 20.4281 8.64067 20.2843 8.7845C20.1404 8.92817 19.9622 9 19.7498 9C19.5371 9 19.359 8.92817 19.2155 8.7845C19.0718 8.64067 19 8.4625 19 8.25V6.05375Z" fill="#292C2D"/>
</g>
</svg>
