<svg width="24" height="24" viewBox="0 0 24 24" fill="none" xmlns="http://www.w3.org/2000/svg">
<mask id="mask0_2409_24024" style="mask-type:alpha" maskUnits="userSpaceOnUse" x="0" y="0" width="24" height="24">
<rect width="24" height="24" fill="#D9D9D9"/>
</mask>
<g mask="url(#mask0_2409_24024)">
<path d="M10.8038 14.4771L9.02501 22.1616C8.98784 22.3372 8.89743 22.4792 8.75376 22.5876C8.61026 22.6959 8.44551 22.7501 8.25951 22.7501C8.00968 22.7501 7.80876 22.6587 7.65676 22.4761C7.50476 22.2934 7.45576 22.0821 7.50976 21.8423L10.1943 8.47706L7.81726 9.42706V11.9906C7.81726 12.2032 7.74551 12.3814 7.60201 12.5251C7.45834 12.6686 7.28009 12.7403 7.06726 12.7403C6.85443 12.7403 6.67626 12.6686 6.53276 12.5251C6.38909 12.3814 6.31726 12.2032 6.31726 11.9906V9.03656C6.31726 8.85589 6.36668 8.69281 6.46551 8.54731C6.56418 8.40164 6.69559 8.29039 6.85976 8.21356L11.0595 6.42881C11.2928 6.32881 11.5259 6.26889 11.7588 6.24906C11.9914 6.22923 12.2148 6.25139 12.4288 6.31556C12.6429 6.37956 12.8413 6.47856 13.024 6.61256C13.2067 6.74656 13.3615 6.92064 13.4885 7.13481L14.3345 8.48456C14.5833 8.87573 14.8648 9.23731 15.1788 9.56931C15.4929 9.90131 15.8365 10.1885 16.2095 10.4308C16.4813 10.609 16.7749 10.7603 17.0903 10.8848C17.4058 11.0091 17.7276 11.1027 18.0558 11.1656C18.2583 11.2027 18.4246 11.2946 18.5548 11.4413C18.6849 11.5881 18.75 11.768 18.75 11.9808C18.75 12.1936 18.674 12.3676 18.522 12.5028C18.3702 12.6381 18.1878 12.6923 17.975 12.6653C17.016 12.5128 16.1528 12.1843 15.3855 11.6798C14.6182 11.1753 13.9531 10.5391 13.3903 9.77106L12.6213 13.5963L14.4885 15.4598C14.5757 15.5533 14.641 15.6546 14.6845 15.7636C14.7282 15.8726 14.75 15.9873 14.75 16.1078V22.0001C14.75 22.2129 14.6782 22.3911 14.5345 22.5346C14.391 22.6782 14.2128 22.7501 14 22.7501C13.7872 22.7501 13.609 22.6782 13.4655 22.5346C13.3218 22.3911 13.25 22.2129 13.25 22.0001V16.5673L10.8038 14.4771ZM13.5 5.34631C12.9885 5.34631 12.5529 5.16648 12.1933 4.80681C11.8336 4.44714 11.6538 4.01156 11.6538 3.50006C11.6538 2.98856 11.8336 2.55297 12.1933 2.19331C12.5529 1.83364 12.9885 1.65381 13.5 1.65381C14.0115 1.65381 14.4471 1.83364 14.8068 2.19331C15.1664 2.55297 15.3463 2.98856 15.3463 3.50006C15.3463 4.01156 15.1664 4.44714 14.8068 4.80681C14.4471 5.16648 14.0115 5.34631 13.5 5.34631Z" fill="#292C2D"/>
</g>
</svg>
