<svg width="24" height="24" viewBox="0 0 24 24" fill="none" xmlns="http://www.w3.org/2000/svg">
<mask id="mask0_3113_10419" style="mask-type:alpha" maskUnits="userSpaceOnUse" x="0" y="0" width="24" height="24">
<rect width="24" height="24" fill="#D9D9D9"/>
</mask>
<g mask="url(#mask0_3113_10419)">
<path d="M11 11.6923C10.0347 11.6923 9.21 11.3503 8.526 10.6663C7.842 9.98243 7.5 9.15776 7.5 8.19226C7.5 7.22693 7.842 6.40226 8.526 5.71826C9.21 5.03426 10.0347 4.69226 11 4.69226C11.9653 4.69226 12.79 5.03426 13.474 5.71826C14.158 6.40226 14.5 7.22693 14.5 8.19226C14.5 9.15776 14.158 9.98243 13.474 10.6663C12.79 11.3503 11.9653 11.6923 11 11.6923ZM21.1308 22.1845L18.727 19.7808C18.3898 19.9936 18.034 20.1603 17.6595 20.2808C17.2852 20.4013 16.8987 20.4615 16.5 20.4615C15.3975 20.4615 14.4616 20.0769 13.6923 19.3078C12.9231 18.5384 12.5385 17.6025 12.5385 16.5C12.5385 15.3975 12.9231 14.4616 13.6923 13.6923C14.4616 12.9231 15.3975 12.5385 16.5 12.5385C17.6025 12.5385 18.5384 12.9231 19.3077 13.6923C20.0769 14.4616 20.4615 15.3975 20.4615 16.5C20.4615 16.8987 20.4013 17.2852 20.2808 17.6595C20.1602 18.034 19.9936 18.3898 19.7808 18.727L22.1845 21.1308C22.323 21.2693 22.3938 21.4433 22.397 21.6528C22.4002 21.8624 22.3293 22.0397 22.1845 22.1845C22.0397 22.3293 21.8641 22.4018 21.6578 22.4018C21.4513 22.4018 21.2756 22.3293 21.1308 22.1845ZM16.5 18.9615C17.1937 18.9615 17.7773 18.7247 18.251 18.251C18.7247 17.7773 18.9615 17.1937 18.9615 16.5C18.9615 15.8063 18.7247 15.2227 18.251 14.749C17.7773 14.2753 17.1937 14.0385 16.5 14.0385C15.8063 14.0385 15.2227 14.2753 14.749 14.749C14.2753 15.2227 14.0385 15.8063 14.0385 16.5C14.0385 17.1937 14.2753 17.7773 14.749 18.251C15.2227 18.7247 15.8063 18.9615 16.5 18.9615ZM5.01925 19.3078C4.59742 19.3078 4.23875 19.16 3.94325 18.8645C3.64775 18.5688 3.5 18.2102 3.5 17.7885V17.1C3.5 16.6038 3.6305 16.1478 3.8915 15.7318C4.15233 15.3158 4.51033 14.9923 4.9655 14.7615C5.66417 14.4038 6.49008 14.0843 7.44325 13.803C8.39642 13.5215 9.43717 13.3615 10.5655 13.323C10.759 13.3128 10.9058 13.3946 11.0058 13.5683C11.1058 13.7419 11.1173 13.9256 11.0405 14.1193C10.8763 14.5039 10.7517 14.8978 10.6665 15.301C10.5812 15.7042 10.5385 16.1115 10.5385 16.523C10.5385 16.8473 10.5648 17.1743 10.6172 17.5038C10.6699 17.8333 10.7591 18.1499 10.8848 18.4538C10.9591 18.6679 10.9395 18.8638 10.826 19.0413C10.7125 19.2189 10.5488 19.3078 10.3348 19.3078H5.01925Z" fill="#292C2D"/>
</g>
</svg>
