<svg width="25" height="24" viewBox="0 0 25 24" fill="none" xmlns="http://www.w3.org/2000/svg">
<mask id="mask0_10785_23853" style="mask-type:alpha" maskUnits="userSpaceOnUse" x="0" y="0" width="25" height="24">
<rect x="0.400391" width="24" height="24" fill="#D9D9D9"/>
</mask>
<g mask="url(#mask0_10785_23853)">
<path d="M17.5619 20.9193L18.8851 19.5865L16.8716 17.573L15.5389 18.8963C15.2479 19.1873 15.1024 19.5244 15.1024 19.9078C15.1024 20.2911 15.2479 20.6283 15.5389 20.9193C15.8299 21.2103 16.1671 21.3558 16.5504 21.3558C16.9337 21.3558 17.2709 21.2103 17.5619 20.9193ZM19.9291 18.5423L21.2619 17.2193C21.5529 16.9283 21.6968 16.5911 21.6936 16.2078C21.6905 15.8244 21.5434 15.4873 21.2524 15.1963C20.9614 14.9116 20.6258 14.7677 20.2456 14.7645C19.8655 14.7612 19.5299 14.9051 19.2389 15.1963L17.9156 16.5288L19.9291 18.5423ZM18.6216 21.9885C18.0433 22.5667 17.3513 22.8542 16.5456 22.851C15.7398 22.8478 15.0478 22.5603 14.4696 21.9885C13.8978 21.4103 13.6103 20.7183 13.6071 19.9125C13.604 19.1067 13.8915 18.4147 14.4696 17.8365L18.1791 14.127C18.751 13.5552 19.443 13.2693 20.2551 13.2693C21.0673 13.2693 21.7593 13.5552 22.3311 14.127C22.9093 14.7052 23.1984 15.3972 23.1984 16.203C23.1984 17.0087 22.9093 17.7006 22.3311 18.2788L18.6216 21.9885ZM5.70814 20.5C5.20947 20.5 4.78347 20.3234 4.43014 19.9703C4.07697 19.6169 3.90039 19.1909 3.90039 18.6923V5.30775C3.90039 4.80908 4.07697 4.38308 4.43014 4.02975C4.78347 3.67658 5.20947 3.5 5.70814 3.5H10.1581C10.221 2.94483 10.4633 2.47275 10.8851 2.08375C11.3068 1.69458 11.8119 1.5 12.4004 1.5C12.9952 1.5 13.5036 1.69458 13.9254 2.08375C14.3472 2.47275 14.5863 2.94483 14.6426 3.5H19.0926C19.5913 3.5 20.0173 3.67658 20.3706 4.02975C20.7238 4.38308 20.9004 4.80908 20.9004 5.30775V10.9615C20.6504 10.9102 20.4004 10.8878 20.1504 10.8943C19.9004 10.9006 19.6504 10.9223 19.4004 10.9595V5.30775C19.4004 5.21792 19.3716 5.14417 19.3139 5.0865C19.2562 5.02883 19.1825 5 19.0926 5H5.70814C5.61831 5 5.54456 5.02883 5.48689 5.0865C5.42922 5.14417 5.40039 5.21792 5.40039 5.30775V18.6923C5.40039 18.7821 5.42922 18.8558 5.48689 18.9135C5.54456 18.9712 5.61831 19 5.70814 19H11.3119C11.2684 19.25 11.2434 19.5 11.2369 19.75C11.2306 20 11.253 20.25 11.3041 20.5H5.70814ZM12.4004 4.34625C12.6171 4.34625 12.7962 4.27542 12.9379 4.13375C13.0796 3.99208 13.1504 3.81292 13.1504 3.59625C13.1504 3.37958 13.0796 3.20042 12.9379 3.05875C12.7962 2.91708 12.6171 2.84625 12.4004 2.84625C12.1837 2.84625 12.0046 2.91708 11.8629 3.05875C11.7212 3.20042 11.6504 3.37958 11.6504 3.59625C11.6504 3.81292 11.7212 3.99208 11.8629 4.13375C12.0046 4.27542 12.1837 4.34625 12.4004 4.34625ZM7.65039 8.86525V7.3655H17.1504V8.86525H7.65039ZM7.65039 12.75V11.25H17.1504V11.8788C17.0362 11.9558 16.9279 12.0388 16.8254 12.128C16.7229 12.217 16.6146 12.3186 16.5004 12.4328L16.1831 12.75H7.65039ZM7.65039 16.6345V15.1348H13.7984L13.0446 15.8885C12.9176 16.0153 12.7984 16.1397 12.6869 16.2615C12.5754 16.3833 12.4716 16.5077 12.3754 16.6345H7.65039Z" fill="#79C5DD"/>
</g>
</svg>
