<svg width="24" height="24" viewBox="0 0 24 24" fill="none" xmlns="http://www.w3.org/2000/svg">
<mask id="mask0_10453_12757" style="mask-type:alpha" maskUnits="userSpaceOnUse" x="0" y="0" width="24" height="24">
<rect width="24" height="24" fill="#D9D9D9"/>
</mask>
<g mask="url(#mask0_10453_12757)">
<path d="M11.4559 17.491V12.3122L6.9217 9.68656V14.7398C6.9217 14.7769 6.93101 14.8118 6.94963 14.8445C6.96825 14.877 6.99612 14.9049 7.03324 14.9281L11.4559 17.491ZM12.5441 17.491L16.9667 14.9281C17.0039 14.9049 17.0317 14.877 17.0504 14.8445C17.069 14.8118 17.0783 14.7769 17.0783 14.7398V9.68656L12.5441 12.3122V17.491ZM11.3443 18.6782L6.48932 15.8837C6.2828 15.7647 6.12187 15.6057 6.00652 15.4067C5.89117 15.2076 5.8335 14.989 5.8335 14.7509V9.24856C5.8335 9.01048 5.89117 8.79187 6.00652 8.59273C6.12187 8.39371 6.2828 8.23471 6.48932 8.11574L11.3443 5.32123C11.5507 5.20213 11.7693 5.14258 12 5.14258C12.2307 5.14258 12.4492 5.20213 12.6556 5.32123L17.5107 8.11574C17.7172 8.23471 17.8781 8.39371 17.9935 8.59273C18.1088 8.79187 18.1665 9.01048 18.1665 9.24856V14.7509C18.1665 14.989 18.1088 15.2076 17.9935 15.4067C17.8781 15.6057 17.7172 15.7647 17.5107 15.8837L12.6556 18.6782C12.4492 18.7973 12.2307 18.8569 12 18.8569C11.7693 18.8569 11.5507 18.7973 11.3443 18.6782ZM14.7972 9.75076L16.4798 8.78535L12.1115 6.25871C12.0744 6.2355 12.0372 6.22389 12 6.22389C11.9628 6.22389 11.9256 6.2355 11.8885 6.25871L10.3133 7.16555L14.7972 9.75076ZM12 11.3747L13.6867 10.3981L9.20693 7.80868L7.52021 8.78535L12 11.3747Z" fill="#79C5DD"/>
<path fill-rule="evenodd" clip-rule="evenodd" d="M13.0774 1.115C15.8496 1.38804 18.4141 2.70533 20.2508 4.79966C22.0875 6.894 23.0588 9.60855 22.9676 12.3927C22.8941 14.6396 22.1329 16.7961 20.8065 18.58L21.9598 18.4936C22.3139 18.4671 22.6224 18.7326 22.6489 19.0866C22.6755 19.4407 22.4099 19.7492 22.0559 19.7757L19.3535 19.9782C19.1832 19.991 19.0149 19.9355 18.8856 19.824C18.7563 19.7125 18.6767 19.5541 18.6643 19.3838L18.4618 16.5991C18.436 16.245 18.7022 15.9371 19.0563 15.9113C19.4104 15.8856 19.7183 16.1518 19.7441 16.5059L19.8334 17.7333C20.9681 16.174 21.6187 14.3009 21.6826 12.3506C21.7631 9.89274 20.9056 7.4963 19.2841 5.6474C17.6627 3.79849 15.3987 2.63556 12.9513 2.39452C10.504 2.15348 8.05661 2.85237 6.10562 4.34942C4.15462 5.84648 2.84611 8.02959 2.44552 10.4559C2.04494 12.8823 2.58226 15.3701 3.94851 17.4148C5.31475 19.4596 7.40761 20.9081 9.80255 21.4665C12.1975 22.0249 14.7152 21.6514 16.8449 20.4219C17.1523 20.2443 17.5455 20.3497 17.723 20.6572C17.9006 20.9646 17.7952 21.3578 17.4877 21.5353C15.0753 22.9281 12.2234 23.3512 9.51059 22.7186C6.79775 22.0861 4.42708 20.4453 2.87947 18.1292C1.33187 15.813 0.723219 12.9949 1.17698 10.2465C1.63074 7.49808 3.11295 5.02517 5.32292 3.3294C7.5329 1.63362 10.3052 0.841962 13.0774 1.115Z" fill="#79C5DD"/>
</g>
</svg>
