<svg width="11" height="10" viewBox="0 0 11 10" fill="none" xmlns="http://www.w3.org/2000/svg">
<path d="M5.65984 0C5.37797 0.135116 5.07547 0.611649 5.07547 1.27444C5.07547 3.04442 7.07317 3.90695 7.07317 5.45819C7.07317 5.45819 7.07953 6.3786 6.58023 6.57177V6.20495C6.58023 5.08498 4.41633 3.70756 4.41633 2.47804V1.99529C4.13445 2.1304 3.83195 2.61972 3.83195 3.27612C3.83195 4.96887 5.82966 5.73481 5.82966 7.45987C5.82966 7.45987 5.82966 8.18072 5.38794 8.41242C5.40083 8.37372 5.40083 8.32879 5.40083 8.29009C5.40083 8.21286 5.38794 8.14841 5.38794 8.14841C5.34325 7.35672 3.29416 5.38735 3.29416 4.76913C1.49188 5.26519 0 6.17264 0 7.29262C0 8.79237 2.44578 9.99424 5.45531 9.99424C5.47456 9.99424 5.48728 10.0072 5.50653 9.99424C8.54769 9.98958 11 8.74088 11 7.23491C11 6.11493 9.62328 5.15582 7.67697 4.7503C7.73455 4.60223 7.73455 4.4735 7.73455 4.4735C7.73455 3.07051 5.66002 1.70553 5.66002 0.482753L5.65984 0Z" fill="#EB0A00"/>
</svg>
