<svg width="20" height="20" viewBox="0 0 20 20" fill="none" xmlns="http://www.w3.org/2000/svg">
<mask id="mask0_4023_2737" style="mask-type:alpha" maskUnits="userSpaceOnUse" x="0" y="0" width="20" height="20">
<rect width="20" height="20" fill="#D9D9D9"/>
</mask>
<g mask="url(#mask0_4023_2737)">
<path d="M4.79199 16.6669C4.79199 16.8441 4.73206 16.9925 4.6122 17.1121C4.49248 17.2318 4.34408 17.2916 4.16699 17.2916H1.79512C1.58178 17.2916 1.40289 17.2195 1.25845 17.0752C1.11414 16.9307 1.04199 16.7519 1.04199 16.5385V14.1666C1.04199 13.9896 1.10192 13.8412 1.22178 13.7214C1.34165 13.6016 1.49012 13.5416 1.6672 13.5416C1.84442 13.5416 1.99283 13.6016 2.11241 13.7214C2.23213 13.8412 2.29199 13.9896 2.29199 14.1666V16.0416H4.16699C4.34408 16.0416 4.49248 16.1016 4.6122 16.2214C4.73206 16.3413 4.79199 16.4898 4.79199 16.6669ZM18.3339 13.5416C18.5111 13.5416 18.6595 13.6016 18.7791 13.7214C18.8988 13.8412 18.9587 13.9896 18.9587 14.1666V16.5385C18.9587 16.7519 18.8865 16.9307 18.7422 17.0752C18.5978 17.2195 18.4189 17.2916 18.2055 17.2916H15.8337C15.6566 17.2916 15.5082 17.2317 15.3885 17.1119C15.2686 16.992 15.2087 16.8435 15.2087 16.6664C15.2087 16.4892 15.2686 16.3408 15.3885 16.2212C15.5082 16.1015 15.6566 16.0416 15.8337 16.0416H17.7087V14.1666C17.7087 13.9896 17.7686 13.8412 17.8885 13.7214C18.0083 13.6016 18.1568 13.5416 18.3339 13.5416ZM3.71033 15C3.60991 15 3.52199 14.9623 3.44658 14.8871C3.3713 14.8116 3.33366 14.7237 3.33366 14.6233V5.37665C3.33366 5.27623 3.3713 5.18831 3.44658 5.1129C3.52199 5.03762 3.60991 4.99998 3.71033 4.99998H4.62366C4.72408 4.99998 4.81199 5.03762 4.88741 5.1129C4.96269 5.18831 5.00033 5.27623 5.00033 5.37665V14.6233C5.00033 14.7237 4.96269 14.8116 4.88741 14.8871C4.81199 14.9623 4.72408 15 4.62366 15H3.71033ZM6.25033 15C6.13921 15 6.04199 14.9583 5.95866 14.875C5.87533 14.7916 5.83366 14.6944 5.83366 14.5833V5.41665C5.83366 5.30554 5.87533 5.20831 5.95866 5.12498C6.04199 5.04165 6.13921 4.99998 6.25033 4.99998C6.36144 4.99998 6.45866 5.04165 6.54199 5.12498C6.62533 5.20831 6.66699 5.30554 6.66699 5.41665V14.5833C6.66699 14.6944 6.62533 14.7916 6.54199 14.875C6.45866 14.9583 6.36144 15 6.25033 15ZM8.71033 15C8.60991 15 8.52199 14.9623 8.44658 14.8871C8.3713 14.8116 8.33366 14.7237 8.33366 14.6233V5.37665C8.33366 5.27623 8.3713 5.18831 8.44658 5.1129C8.52199 5.03762 8.60991 4.99998 8.71033 4.99998H9.62366C9.72408 4.99998 9.81199 5.03762 9.88741 5.1129C9.96269 5.18831 10.0003 5.27623 10.0003 5.37665V14.6233C10.0003 14.7237 9.96269 14.8116 9.88741 14.8871C9.81199 14.9623 9.72408 15 9.62366 15H8.71033ZM11.2103 15C11.1099 15 11.022 14.9623 10.9466 14.8871C10.8713 14.8116 10.8337 14.7237 10.8337 14.6233V5.37665C10.8337 5.27623 10.8713 5.18831 10.9466 5.1129C11.022 5.03762 11.1099 4.99998 11.2103 4.99998H12.957C13.0574 4.99998 13.1453 5.03762 13.2207 5.1129C13.296 5.18831 13.3337 5.27623 13.3337 5.37665V14.6233C13.3337 14.7237 13.296 14.8116 13.2207 14.8871C13.1453 14.9623 13.0574 15 12.957 15H11.2103ZM14.5837 15C14.4725 15 14.3753 14.9583 14.292 14.875C14.2087 14.7916 14.167 14.6944 14.167 14.5833V5.41665C14.167 5.30554 14.2087 5.20831 14.292 5.12498C14.3753 5.04165 14.4725 4.99998 14.5837 4.99998C14.6948 4.99998 14.792 5.04165 14.8753 5.12498C14.9587 5.20831 15.0003 5.30554 15.0003 5.41665V14.5833C15.0003 14.6944 14.9587 14.7916 14.8753 14.875C14.792 14.9583 14.6948 15 14.5837 15ZM16.2503 15C16.1392 15 16.042 14.9583 15.9587 14.875C15.8753 14.7916 15.8337 14.6944 15.8337 14.5833V5.41665C15.8337 5.30554 15.8753 5.20831 15.9587 5.12498C16.042 5.04165 16.1392 4.99998 16.2503 4.99998C16.3614 4.99998 16.4587 5.04165 16.542 5.12498C16.6253 5.20831 16.667 5.30554 16.667 5.41665V14.5833C16.667 14.6944 16.6253 14.7916 16.542 14.875C16.4587 14.9583 16.3614 15 16.2503 15ZM4.79199 3.33352C4.79199 3.51074 4.73206 3.65915 4.6122 3.77873C4.49248 3.89845 4.34408 3.95831 4.16699 3.95831H2.29199V5.83331C2.29199 6.0104 2.23206 6.1588 2.1122 6.27852C1.99234 6.39838 1.84387 6.45831 1.66678 6.45831C1.48956 6.45831 1.34116 6.39838 1.22158 6.27852C1.10185 6.1588 1.04199 6.0104 1.04199 5.83331V3.46144C1.04199 3.24811 1.11414 3.06922 1.25845 2.92477C1.40289 2.78047 1.58178 2.70831 1.79512 2.70831H4.16699C4.34408 2.70831 4.49248 2.76824 4.6122 2.8881C4.73206 3.00797 4.79199 3.15644 4.79199 3.33352ZM15.2087 3.3331C15.2087 3.15588 15.2686 3.00748 15.3885 2.8879C15.5082 2.76817 15.6566 2.70831 15.8337 2.70831H18.2055C18.4189 2.70831 18.5978 2.78047 18.7422 2.92477C18.8865 3.06922 18.9587 3.24811 18.9587 3.46144V5.83331C18.9587 6.0104 18.8987 6.1588 18.7789 6.27852C18.659 6.39838 18.5105 6.45831 18.3335 6.45831C18.1562 6.45831 18.0078 6.39838 17.8882 6.27852C17.7685 6.1588 17.7087 6.0104 17.7087 5.83331V3.95831H15.8337C15.6566 3.95831 15.5082 3.89838 15.3885 3.77852C15.2686 3.65866 15.2087 3.51019 15.2087 3.3331Z" fill="#292C2D"/>
</g>
</svg>
