<svg width="20" height="20" viewBox="0 0 20 20" fill="none" xmlns="http://www.w3.org/2000/svg">
<mask id="mask0_10365_18787" style="mask-type:alpha" maskUnits="userSpaceOnUse" x="0" y="0" width="20" height="20">
<rect width="20" height="20" fill="#D9D9D9"/>
</mask>
<g mask="url(#mask0_10365_18787)">
<path d="M4.42345 17.0837C4.00248 17.0837 3.64616 16.9378 3.35449 16.6462C3.06283 16.3545 2.91699 15.9982 2.91699 15.5772V4.42345C2.91699 4.00248 3.06283 3.64616 3.35449 3.35449C3.64616 3.06283 4.00248 2.91699 4.42345 2.91699H15.5772C15.9982 2.91699 16.3545 3.06283 16.6462 3.35449C16.9378 3.64616 17.0837 4.00248 17.0837 4.42345V10.4491C17.0837 10.6262 17.0237 10.7746 16.9039 10.8943C16.784 11.0141 16.6355 11.0741 16.4585 11.0741C16.2812 11.0741 16.1328 11.0141 16.0132 10.8943C15.8935 10.7746 15.8337 10.6262 15.8337 10.4491V4.42345C15.8337 4.35928 15.8069 4.30053 15.7535 4.2472C15.7001 4.19373 15.6414 4.16699 15.5772 4.16699H4.42345C4.35928 4.16699 4.30053 4.19373 4.2472 4.2472C4.19373 4.30053 4.16699 4.35928 4.16699 4.42345V15.5772C4.16699 15.6414 4.19373 15.7001 4.2472 15.7535C4.30053 15.8069 4.35928 15.8337 4.42345 15.8337H9.35928C9.53637 15.8337 9.68484 15.8936 9.8047 16.0135C9.92442 16.1333 9.98428 16.2818 9.98428 16.4589C9.98428 16.6361 9.92442 16.7845 9.8047 16.9041C9.68484 17.0238 9.53637 17.0837 9.35928 17.0837H4.42345ZM14.4187 16.1557L17.4282 13.1335C17.5521 13.0094 17.6993 12.9461 17.8697 12.9435C18.0401 12.9408 18.19 13.0041 18.3193 13.1335C18.4485 13.2626 18.513 13.4111 18.513 13.5789C18.513 13.7466 18.4485 13.8951 18.3193 14.0243L14.9457 17.3897C14.7963 17.5404 14.6187 17.6157 14.413 17.6157C14.2073 17.6157 14.0291 17.5404 13.8785 17.3897L12.236 15.7551C12.1153 15.6312 12.0549 15.4841 12.0549 15.3137C12.0549 15.1432 12.1195 14.9934 12.2487 14.8641C12.378 14.7348 12.5244 14.6701 12.6878 14.6701C12.8513 14.6701 12.9977 14.7348 13.127 14.8641L14.4187 16.1557ZM6.71553 10.7374C6.92456 10.7374 7.09963 10.6667 7.24074 10.5253C7.38171 10.3839 7.4522 10.2087 7.4522 9.9997C7.4522 9.79067 7.38151 9.61567 7.24012 9.4747C7.09873 9.33373 6.92352 9.26324 6.71449 9.26324C6.50546 9.26324 6.33046 9.33394 6.18949 9.47533C6.04838 9.61671 5.97783 9.79192 5.97783 10.001C5.97783 10.21 6.04852 10.385 6.18991 10.526C6.33144 10.6669 6.50665 10.7374 6.71553 10.7374ZM6.71553 7.50033C6.92456 7.50033 7.09963 7.42963 7.24074 7.28824C7.38171 7.14685 7.4522 6.97165 7.4522 6.76262C7.4522 6.55359 7.38151 6.37859 7.24012 6.23762C7.09873 6.09651 6.92352 6.02595 6.71449 6.02595C6.50546 6.02595 6.33046 6.09664 6.18949 6.23803C6.04838 6.37942 5.97783 6.55463 5.97783 6.76366C5.97783 6.97269 6.04852 7.14776 6.18991 7.28887C6.33144 7.42984 6.50665 7.50033 6.71553 7.50033ZM13.3657 10.6253C13.5428 10.6253 13.6912 10.5654 13.811 10.4455C13.9308 10.3257 13.9907 10.1772 13.9907 10.0001C13.9907 9.8229 13.9308 9.67449 13.811 9.55491C13.6912 9.43519 13.5428 9.37533 13.3657 9.37533H9.8722C9.69512 9.37533 9.54665 9.43526 9.42678 9.55512C9.30706 9.67498 9.2472 9.82345 9.2472 10.0005C9.2472 10.1778 9.30706 10.3262 9.42678 10.4457C9.54665 10.5655 9.69512 10.6253 9.8722 10.6253H13.3657ZM13.3657 7.38803C13.5428 7.38803 13.6912 7.32817 13.811 7.20845C13.9308 7.08859 13.9907 6.94005 13.9907 6.76283C13.9907 6.58574 13.9308 6.43734 13.811 6.31762C13.6912 6.19803 13.5428 6.13824 13.3657 6.13824H9.8722C9.69512 6.13824 9.54665 6.19817 9.42678 6.31803C9.30706 6.43776 9.2472 6.58623 9.2472 6.76345C9.2472 6.94053 9.30706 7.08894 9.42678 7.20866C9.54665 7.32824 9.69512 7.38803 9.8722 7.38803H13.3657Z" fill="#292C2D"/>
</g>
</svg>
