<svg width="20" height="20" viewBox="0 0 20 20" fill="none" xmlns="http://www.w3.org/2000/svg">
<mask id="mask0_4023_6413" style="mask-type:alpha" maskUnits="userSpaceOnUse" x="0" y="0" width="20" height="20">
<rect width="20" height="20" fill="#D9D9D9"/>
</mask>
<g mask="url(#mask0_4023_6413)">
<path d="M3.58947 16.25C3.16849 16.25 2.81217 16.1042 2.52051 15.8125C2.22884 15.5208 2.08301 15.1645 2.08301 14.7435V5.25646C2.08301 4.83549 2.22884 4.47917 2.52051 4.1875C2.81217 3.89583 3.16849 3.75 3.58947 3.75H16.4099C16.8309 3.75 17.1872 3.89583 17.4788 4.1875C17.7705 4.47917 17.9163 4.83549 17.9163 5.25646V14.7435C17.9163 15.1645 17.7705 15.5208 17.4788 15.8125C17.1872 16.1042 16.8309 16.25 16.4099 16.25H3.58947ZM3.58947 15H16.4099C16.4741 15 16.5328 14.9733 16.5861 14.9198C16.6396 14.8665 16.6663 14.8077 16.6663 14.7435V5.25646C16.6663 5.19229 16.6396 5.13354 16.5861 5.08021C16.5328 5.02674 16.4741 5 16.4099 5H3.58947C3.5253 5 3.46655 5.02674 3.41322 5.08021C3.35974 5.13354 3.33301 5.19229 3.33301 5.25646V14.7435C3.33301 14.8077 3.35974 14.8665 3.41322 14.9198C3.46655 14.9733 3.5253 15 3.58947 15ZM8.54134 11.875H5.83301C5.65565 11.875 5.50717 11.9349 5.38759 12.0546C5.26787 12.1742 5.20801 12.3226 5.20801 12.5C5.20801 12.6774 5.26787 12.8258 5.38759 12.9454C5.50717 13.0651 5.65565 13.125 5.83301 13.125H6.87467V13.3333C6.87467 13.5107 6.93454 13.6592 7.05426 13.7787C7.17384 13.8985 7.32231 13.9583 7.49967 13.9583C7.67704 13.9583 7.82551 13.8985 7.94509 13.7787C8.06481 13.6592 8.12467 13.5107 8.12467 13.3333V13.125H9.05405C9.26349 13.125 9.43877 13.0545 9.57988 12.9135C9.72085 12.7724 9.79134 12.5972 9.79134 12.3877V10.1123C9.79134 9.90285 9.72085 9.72757 9.57988 9.58646C9.43877 9.44549 9.26349 9.375 9.05405 9.375H6.45801V8.125H9.16634C9.3437 8.125 9.49217 8.06514 9.61176 7.94542C9.73148 7.82583 9.79134 7.67736 9.79134 7.5C9.79134 7.32264 9.73148 7.17417 9.61176 7.05458C9.49217 6.93486 9.3437 6.875 9.16634 6.875H8.12467V6.66667C8.12467 6.48931 8.06481 6.34083 7.94509 6.22125C7.82551 6.10153 7.67704 6.04167 7.49967 6.04167C7.32231 6.04167 7.17384 6.10153 7.05426 6.22125C6.93454 6.34083 6.87467 6.48931 6.87467 6.66667V6.875H5.9453C5.73586 6.875 5.56058 6.94549 5.41947 7.08646C5.27849 7.22757 5.20801 7.40285 5.20801 7.61229V9.88771C5.20801 10.0972 5.27849 10.2724 5.41947 10.4135C5.56058 10.5545 5.73586 10.625 5.9453 10.625H8.54134V11.875ZM13.4628 13.2996L14.4853 12.2773C14.5493 12.2131 14.5653 12.1434 14.5332 12.0681C14.5013 11.9928 14.442 11.9552 14.3555 11.9552H12.3105C12.224 11.9552 12.1647 11.9928 12.1328 12.0681C12.1007 12.1434 12.1167 12.2131 12.1807 12.2773L13.2032 13.2996C13.2395 13.336 13.2827 13.3542 13.333 13.3542C13.3833 13.3542 13.4265 13.336 13.4628 13.2996ZM12.3105 8.25313H14.3555C14.442 8.25313 14.5013 8.21549 14.5332 8.14021C14.5653 8.06493 14.5493 7.99521 14.4853 7.93104L13.4628 6.90875C13.4265 6.87236 13.3833 6.85417 13.333 6.85417C13.2827 6.85417 13.2395 6.87236 13.2032 6.90875L12.1807 7.93104C12.1167 7.99521 12.1007 8.06493 12.1328 8.14021C12.1647 8.21549 12.224 8.25313 12.3105 8.25313Z" fill="currentColor"/>
</g>
</svg>
