<svg width="24" height="24" viewBox="0 0 24 24" fill="none" xmlns="http://www.w3.org/2000/svg">
<mask id="mask0_3113_9304" style="mask-type:alpha" maskUnits="userSpaceOnUse" x="0" y="0" width="24" height="24">
<rect width="24" height="24" fill="#D9D9D9"/>
</mask>
<g mask="url(#mask0_3113_9304)">
<path d="M5.07304 20.75C4.56804 20.75 4.14054 20.575 3.79054 20.225C3.44054 19.875 3.26554 19.4474 3.26554 18.9423V10.9538C2.86288 10.6231 2.56063 10.1939 2.35879 9.66625C2.15679 9.13875 2.15263 8.56925 2.34629 7.95775L3.35779 4.65375C3.49113 4.23325 3.71738 3.89417 4.03654 3.6365C4.35588 3.37883 4.73729 3.25 5.18079 3.25H18.8308C19.2745 3.25 19.6533 3.37308 19.9673 3.61925C20.2815 3.86542 20.5103 4.20392 20.6538 4.63475L21.6845 7.95775C21.8782 8.56925 21.874 9.13683 21.672 9.6605C21.4702 10.1843 21.168 10.6218 20.7653 10.973V18.9423C20.7653 19.4474 20.5903 19.875 20.2403 20.225C19.8903 20.575 19.4628 20.75 18.9578 20.75H5.07304ZM14.2155 10.25C14.7617 10.25 15.1723 10.083 15.4473 9.749C15.7223 9.415 15.8348 9.05633 15.7848 8.673L15.177 4.75H12.7653V8.7C12.7653 9.1205 12.9076 9.484 13.1923 9.7905C13.477 10.0968 13.818 10.25 14.2155 10.25ZM9.71554 10.25C10.1757 10.25 10.549 10.0968 10.8355 9.7905C11.1222 9.484 11.2655 9.1205 11.2655 8.7V4.75H8.85379L8.24629 8.7115C8.19229 9.06667 8.30379 9.41192 8.58079 9.74725C8.85779 10.0824 9.23604 10.25 9.71554 10.25ZM5.26554 10.25C5.63604 10.25 5.95463 10.1208 6.22129 9.8625C6.48796 9.60417 6.65271 9.2795 6.71554 8.8885L7.30379 4.75H5.18079C5.07179 4.75 4.98529 4.774 4.92129 4.822C4.85713 4.87017 4.80904 4.94233 4.77704 5.0385L3.81529 8.29225C3.68329 8.72175 3.74554 9.15542 4.00204 9.59325C4.25838 10.0311 4.67954 10.25 5.26554 10.25ZM18.7655 10.25C19.3065 10.25 19.7206 10.0375 20.0078 9.6125C20.295 9.1875 20.3642 8.74742 20.2155 8.29225L19.2038 5.01925C19.1718 4.92308 19.1238 4.85417 19.0598 4.8125C18.9956 4.77083 18.909 4.75 18.8 4.75H16.727L17.3153 8.8885C17.3781 9.2795 17.5429 9.60417 17.8095 9.8625C18.0762 10.1208 18.3949 10.25 18.7655 10.25ZM5.07304 19.25H18.9578C19.0475 19.25 19.1211 19.2212 19.1788 19.1635C19.2366 19.1058 19.2655 19.0321 19.2655 18.9423V11.6615C19.1565 11.7013 19.0655 11.726 18.9923 11.7355C18.9193 11.7452 18.8437 11.75 18.7655 11.75C18.3155 11.75 17.9197 11.6686 17.578 11.5058C17.2364 11.3429 16.9052 11.082 16.5845 10.723C16.3039 11.0358 15.9719 11.2853 15.5885 11.4713C15.2052 11.6571 14.768 11.75 14.277 11.75C13.8527 11.75 13.4527 11.6618 13.077 11.4855C12.7014 11.3093 12.3475 11.0552 12.0155 10.723C11.7065 11.0552 11.3565 11.3093 10.9655 11.4855C10.5744 11.6618 10.1782 11.75 9.77704 11.75C9.32571 11.75 8.90263 11.6683 8.50779 11.5048C8.11296 11.3413 7.76554 11.0807 7.46554 10.723C7.04488 11.1435 6.65729 11.4198 6.30279 11.552C5.94846 11.684 5.60271 11.75 5.26554 11.75C5.18721 11.75 5.10638 11.7452 5.02304 11.7355C4.93971 11.726 4.85379 11.7013 4.76529 11.6615V18.9423C4.76529 19.0321 4.79421 19.1058 4.85204 19.1635C4.90971 19.2212 4.98338 19.25 5.07304 19.25Z" fill="#292C2D"/>
</g>
</svg>
