<svg width="24" height="24" viewBox="0 0 24 24" fill="none" xmlns="http://www.w3.org/2000/svg">
<mask id="mask0_2901_4260" style="mask-type:alpha" maskUnits="userSpaceOnUse" x="0" y="0" width="24" height="24">
<rect width="24" height="24" fill="#D9D9D9"/>
</mask>
<g mask="url(#mask0_2901_4260)">
<path d="M5.844 19.5577C5.06334 19.5577 4.40059 19.2847 3.85575 18.7387C3.31092 18.1927 3.0385 17.5298 3.0385 16.75H2.25C1.994 16.75 1.77934 16.6634 1.606 16.4902C1.43284 16.3169 1.34625 16.1023 1.34625 15.8463V6.30775C1.34625 5.80258 1.52125 5.375 1.87125 5.025C2.22125 4.675 2.64875 4.5 3.15375 4.5H14.9615C15.4587 4.5 15.8843 4.677 16.2383 5.031C16.5923 5.385 16.7693 5.81058 16.7693 6.30775V8.30775H18.5193C18.8054 8.30775 19.0766 8.37175 19.3328 8.49975C19.5888 8.62775 19.7996 8.80475 19.9653 9.03075L22.473 12.3885C22.5333 12.4638 22.5786 12.5467 22.6088 12.637C22.6388 12.7275 22.6538 12.8254 22.6538 12.9308V15.8463C22.6538 16.1023 22.5672 16.3169 22.394 16.4902C22.2207 16.6634 22.006 16.75 21.75 16.75H20.8463C20.8463 17.5298 20.573 18.1927 20.0265 18.7387C19.4802 19.2847 18.8168 19.5577 18.0363 19.5577C17.2558 19.5577 16.593 19.2847 16.048 18.7387C15.5032 18.1927 15.2308 17.5298 15.2308 16.75H8.65375C8.65375 17.532 8.38059 18.1954 7.83425 18.7402C7.28792 19.2852 6.6245 19.5577 5.844 19.5577ZM5.84625 18.0577C6.21292 18.0577 6.5225 17.9314 6.775 17.6788C7.0275 17.4263 7.15375 17.1167 7.15375 16.75C7.15375 16.3833 7.0275 16.0737 6.775 15.821C6.5225 15.5685 6.21292 15.4423 5.84625 15.4423C5.47959 15.4423 5.16992 15.5685 4.91725 15.821C4.66475 16.0737 4.5385 16.3833 4.5385 16.75C4.5385 17.1167 4.66475 17.4263 4.91725 17.6788C5.16992 17.9314 5.47959 18.0577 5.84625 18.0577ZM2.84625 15.25H3.56925C3.78209 14.8795 4.08942 14.5689 4.49125 14.3183C4.89325 14.0676 5.34492 13.9423 5.84625 13.9423C6.33459 13.9423 6.78292 14.066 7.19125 14.3135C7.59959 14.561 7.91017 14.8732 8.123 15.25H15.2693V6.30775C15.2693 6.21792 15.2404 6.14417 15.1828 6.0865C15.1251 6.02883 15.0513 6 14.9615 6H3.15375C3.07692 6 3.00642 6.03208 2.94225 6.09625C2.87825 6.16025 2.84625 6.23075 2.84625 6.30775V15.25ZM18.0385 18.0577C18.4052 18.0577 18.7148 17.9314 18.9673 17.6788C19.2199 17.4263 19.3463 17.1167 19.3463 16.75C19.3463 16.3833 19.2199 16.0737 18.9673 15.821C18.7148 15.5685 18.4052 15.4423 18.0385 15.4423C17.6718 15.4423 17.3622 15.5685 17.1095 15.821C16.857 16.0737 16.7308 16.3833 16.7308 16.75C16.7308 17.1167 16.857 17.4263 17.1095 17.6788C17.3622 17.9314 17.6718 18.0577 18.0385 18.0577ZM16.7693 13.25H21.25L18.75 9.93275C18.718 9.89425 18.6812 9.86375 18.6395 9.84125C18.5978 9.81892 18.5513 9.80775 18.5 9.80775H16.7693V13.25Z" fill="#292C2D"/>
</g>
</svg>
