<svg width="20" height="20" viewBox="0 0 20 20" fill="none" xmlns="http://www.w3.org/2000/svg">
<g clip-path="url(#clip0_11132_44890)">
<path d="M10.0391 0.833984C5.00778 0.833984 0.912468 4.90912 0.910389 9.91781C0.909874 11.5189 1.33037 13.0817 2.12918 14.4592L0.834188 19.1673L5.67337 17.904C7.00683 18.6278 8.50785 19.0091 10.0355 19.0096H10.0393C15.07 19.0096 19.1653 14.9339 19.1674 9.92524C19.1685 7.4979 18.2197 5.21553 16.4962 3.4987C14.7726 1.78134 12.4808 0.835046 10.0391 0.833984ZM10.0393 17.4755H10.0361C8.67485 17.4755 7.33925 17.1106 6.1744 16.4229L5.89746 16.2594L3.02618 17.0092L3.7924 14.2229L3.61204 13.9372C2.85271 12.7349 2.45143 11.3452 2.45195 9.91887C2.45351 5.75558 5.85729 2.36867 10.0423 2.36867C12.0689 2.3692 13.9738 3.15565 15.406 4.58307C16.8388 6.00995 17.6269 7.90732 17.6264 9.92471C17.6248 14.088 14.2211 17.4755 10.0393 17.4755ZM14.2007 11.8205C13.9729 11.7069 12.8512 11.1578 12.6421 11.0818C12.4329 11.0059 12.2808 10.9682 12.1288 11.1955C11.9767 11.4228 11.5397 11.9341 11.4068 12.0855C11.2739 12.2374 11.1405 12.2559 10.9127 12.1423C10.6848 12.0287 9.94955 11.7886 9.07871 11.0155C8.4005 10.4138 7.94266 9.67035 7.8098 9.44307C7.67693 9.21579 7.79539 9.09312 7.91011 8.98001C8.01256 8.87858 8.13795 8.71502 8.25214 8.58227C8.36633 8.44951 8.40421 8.35498 8.47998 8.20311C8.55575 8.05176 8.51786 7.91901 8.46077 7.80537C8.40367 7.69173 7.94743 6.57444 7.75747 6.11987C7.5723 5.67752 7.38448 5.737 7.24414 5.73009C7.11128 5.72319 6.9592 5.72213 6.80713 5.72213C6.65505 5.72213 6.408 5.77895 6.19883 6.00623C5.98966 6.23351 5.40058 6.7826 5.40059 7.89989C5.4006 9.01718 6.21808 10.0968 6.33174 10.2481C6.44593 10.3995 7.94003 12.6924 10.2281 13.6754C10.7724 13.909 11.1971 14.0487 11.5285 14.1533C12.0749 14.3259 12.5722 14.3015 12.9649 14.2431C13.403 14.1777 14.3144 13.694 14.5043 13.1635C14.6943 12.6335 14.6943 12.1789 14.6372 12.0839C14.5801 11.9894 14.428 11.9325 14.2002 11.8189L14.2007 11.8205Z" fill="#25D366"/>
</g>
<defs>
<clipPath id="clip0_11132_44890">
<rect width="20" height="20" fill="white"/>
</clipPath>
</defs>
</svg>
