<svg width="86" height="20" viewBox="0 0 86 20" fill="none" xmlns="http://www.w3.org/2000/svg">
<g clip-path="url(#clip0_11132_44896)">
<path d="M9.98604 0C4.5279 0 0.0850935 4.4456 0.082778 9.90963C0.0821992 11.6562 0.538347 13.3611 1.40491 14.8639L0 20L5.24975 18.6218C6.69634 19.4114 8.32469 19.8274 9.98199 19.8279H9.98604C15.4436 19.8279 19.8864 15.3818 19.8887 9.91774C19.8899 7.26973 18.8607 4.77986 16.9909 2.90696C15.1212 1.03348 12.6349 0.00115861 9.98604 0ZM9.98604 18.1543H9.98257C8.50588 18.1543 7.05697 17.7563 5.7933 17.0061L5.49287 16.8277L2.37799 17.6457L3.20924 14.6061L3.01358 14.2944C2.18986 12.9829 1.75455 11.4668 1.75513 9.91079C1.75686 5.36902 5.44946 1.6742 9.98951 1.6742C12.1881 1.67478 14.2546 2.53273 15.8083 4.08991C17.3625 5.64651 18.2175 7.71637 18.217 9.91716C18.2152 14.4589 14.5226 18.1543 9.98604 18.1543ZM14.5006 11.9853C14.2534 11.8613 13.0367 11.2623 12.8098 11.1795C12.5828 11.0966 12.4179 11.0555 12.2529 11.3034C12.0879 11.5514 11.6138 12.1093 11.4697 12.2744C11.3255 12.44 11.1808 12.4603 10.9336 12.3363C10.6865 12.2124 9.88879 11.9505 8.94408 11.1071C8.20834 10.4507 7.71167 9.63967 7.56753 9.39173C7.42339 9.14378 7.5519 9.00996 7.67636 8.88657C7.7875 8.77592 7.92354 8.5975 8.04741 8.45267C8.17129 8.30784 8.21239 8.20473 8.29459 8.03905C8.37679 7.87394 8.33569 7.72912 8.27375 7.60514C8.21181 7.48117 7.71688 6.26231 7.5108 5.76642C7.30994 5.28386 7.10617 5.34874 6.95393 5.34121C6.80979 5.33368 6.64482 5.33252 6.47984 5.33252C6.31486 5.33252 6.04685 5.39451 5.81993 5.64245C5.59302 5.8904 4.95395 6.4894 4.95395 7.70826C4.95395 8.92712 5.84077 10.1049 5.96407 10.27C6.08795 10.4351 7.70878 12.9365 10.191 14.0088C10.7814 14.2637 11.2422 14.4161 11.6017 14.5302C12.1944 14.7185 12.7339 14.6918 13.16 14.6281C13.6352 14.5568 14.6239 14.0291 14.83 13.4504C15.0361 12.8722 15.0361 12.3763 14.9741 12.2726C14.9122 12.1695 14.7472 12.1075 14.5 11.9835L14.5006 11.9853ZM32.0195 11.8341H31.9928L30.3512 5.20565H28.3726L26.7037 11.753H26.6771L25.1564 5.20565H23.0435L25.5871 14.825H27.7272L29.3283 8.27714H29.3555L30.9839 14.825H33.0834L35.6675 5.20565H33.5951L32.02 11.8341H32.0195ZM42.1132 8.45904C41.925 8.21226 41.6669 8.01935 41.3398 7.87974C41.0122 7.74128 40.5925 7.67176 40.0813 7.67176C39.7225 7.67176 39.3549 7.7633 38.9775 7.94809C38.6006 8.13173 38.2915 8.42602 38.0489 8.83038H38.0084V5.20565H36.0976V14.8245H38.0084V11.1737C38.0084 10.464 38.1248 9.95481 38.3586 9.64431C38.5919 9.33496 38.9688 9.1797 39.4892 9.1797C39.9465 9.1797 40.2649 9.32105 40.4449 9.60433C40.6243 9.88703 40.7141 10.3157 40.7141 10.8904V14.8245H42.6255V10.5405C42.6255 10.1095 42.5867 9.71672 42.5109 9.3616C42.4344 9.00765 42.3025 8.70641 42.1138 8.45904H42.1132ZM49.9864 13.2754V9.65184C49.9864 9.22894 49.8926 8.89005 49.7033 8.63457C49.5152 8.37852 49.2732 8.17866 48.9774 8.03499C48.681 7.89132 48.3534 7.79458 47.9945 7.74534C47.6356 7.6961 47.2813 7.67119 46.9317 7.67119C46.5461 7.67119 46.1624 7.70884 45.7815 7.78589C45.3994 7.86236 45.0567 7.99038 44.7517 8.16997C44.4466 8.34955 44.1948 8.58765 43.9985 8.88368C43.8006 9.18028 43.6883 9.55278 43.6616 10.0023H45.5725C45.6084 9.62519 45.7346 9.35523 45.9499 9.1936C46.1652 9.03198 46.461 8.95145 46.8379 8.95145C47.0081 8.95145 47.1673 8.96246 47.3155 8.98505C47.4631 9.00765 47.5933 9.05167 47.7056 9.11945C47.8179 9.18665 47.9076 9.28108 47.9748 9.40273C48.0419 9.52381 48.0755 9.68833 48.0755 9.89399C48.0842 10.0921 48.0257 10.2416 47.9007 10.3453C47.7745 10.449 47.6043 10.5277 47.389 10.581C47.1736 10.6355 46.927 10.6761 46.6486 10.7021C46.3702 10.7299 46.0877 10.7664 45.8011 10.8105C45.5134 10.8556 45.2286 10.9159 44.9467 10.9924C44.6642 11.0682 44.4119 11.1835 44.1925 11.3353C43.9725 11.4888 43.793 11.6927 43.6535 11.9488C43.5146 12.2048 43.4452 12.531 43.4452 12.9255C43.4452 13.2847 43.5059 13.5946 43.6269 13.8547C43.7479 14.116 43.9163 14.3309 44.1317 14.5018C44.347 14.6727 44.5983 14.7984 44.8854 14.8795C45.1719 14.96 45.4822 15.0006 45.8139 15.0006C46.2446 15.0006 46.6665 14.9374 47.0787 14.8123C47.4914 14.6854 47.8509 14.4665 48.156 14.1513C48.1647 14.2683 48.1803 14.383 48.2029 14.4948C48.2254 14.6067 48.2544 14.7173 48.2903 14.8245H50.2283C50.1386 14.6814 50.0755 14.4659 50.0396 14.178C50.0031 13.8906 49.9852 13.5905 49.9852 13.2754H49.9864ZM48.0755 12.1301C48.0755 12.239 48.0645 12.3827 48.0419 12.5617C48.0199 12.7419 47.9592 12.9185 47.8602 13.0941C47.7612 13.269 47.6084 13.4202 47.4023 13.5454C47.1962 13.6716 46.9045 13.7342 46.527 13.7342C46.3748 13.7342 46.2266 13.7209 46.083 13.6931C45.9395 13.6664 45.8139 13.6189 45.7062 13.5517C45.5985 13.4845 45.5134 13.3924 45.4503 13.2754C45.3878 13.1584 45.356 13.0153 45.356 12.845C45.356 12.6654 45.3878 12.5165 45.4503 12.4001C45.5134 12.2836 45.5962 12.1869 45.6998 12.1104C45.8023 12.0339 45.9239 11.9737 46.0628 11.9285C46.2017 11.8839 46.343 11.848 46.4871 11.8208C46.6393 11.7941 46.7922 11.7709 46.9444 11.7536C47.0978 11.7362 47.2431 11.713 47.382 11.6864C47.5215 11.6591 47.6512 11.6255 47.7728 11.585C47.8937 11.5444 47.9945 11.4894 48.0755 11.417V12.1307V12.1301ZM53.5533 5.77164H51.6419V7.85946H50.4848V9.13915H51.6419V13.2488C51.6419 13.5992 51.701 13.8819 51.8173 14.0974C51.9342 14.3129 52.0934 14.4798 52.2949 14.5962C52.4969 14.7132 52.7302 14.7914 52.9953 14.8314C53.2593 14.8714 53.5406 14.8922 53.8364 14.8922C54.0257 14.8922 54.2179 14.8876 54.4158 14.8795C54.6127 14.8702 54.7921 14.8529 54.9542 14.825V13.3432C54.8639 13.3611 54.7701 13.3756 54.6711 13.3837C54.5727 13.393 54.4697 13.3976 54.362 13.3976C54.0396 13.3976 53.8237 13.3432 53.716 13.2354C53.6089 13.1277 53.5551 12.9122 53.5551 12.5883V9.13915H54.9548V7.85946H53.5551V5.77164H53.5533ZM61.4526 11.7738C61.3269 11.5537 61.1608 11.3695 60.9547 11.2212C60.7486 11.0735 60.5125 10.9541 60.2485 10.8637C59.9834 10.7745 59.7119 10.6986 59.434 10.6355C59.1649 10.5724 58.9009 10.5138 58.6404 10.46C58.3799 10.4061 58.149 10.3453 57.9469 10.2786C57.7455 10.2109 57.5822 10.124 57.4566 10.0156C57.3304 9.90789 57.2685 9.76944 57.2685 9.59796C57.2685 9.45429 57.3032 9.33959 57.3756 9.25443C57.4474 9.16927 57.5354 9.10439 57.6384 9.05863C57.742 9.01402 57.8555 8.98505 57.9811 8.97115C58.1067 8.95783 58.2236 8.95145 58.3307 8.95145C58.6717 8.95145 58.9681 9.01634 59.2199 9.14668C59.4705 9.27702 59.61 9.52613 59.6361 9.89399H61.4531C61.4172 9.46298 61.3073 9.10613 61.1238 8.82285C60.9403 8.54015 60.7087 8.31364 60.4309 8.14274C60.153 7.97185 59.8369 7.85077 59.4815 7.77894C59.1272 7.7071 58.762 7.67119 58.3857 7.67119C58.0094 7.67119 57.6401 7.70478 57.2824 7.77141C56.9229 7.83918 56.5999 7.9562 56.3134 8.12247C56.0257 8.28873 55.7953 8.51524 55.6199 8.80257C55.4445 9.08991 55.3571 9.45835 55.3571 9.90731C55.3571 10.2126 55.4202 10.4716 55.5464 10.6824C55.6708 10.8939 55.8375 11.0682 56.043 11.2079C56.2503 11.3469 56.4859 11.4599 56.7504 11.5444C57.015 11.6307 57.2864 11.7043 57.5643 11.7675C58.2468 11.9111 58.7788 12.0548 59.1597 12.199C59.5411 12.3427 59.7316 12.5582 59.7316 12.8456C59.7316 13.0165 59.6916 13.1566 59.6106 13.269C59.5296 13.382 59.4288 13.4712 59.3079 13.5384C59.1863 13.6062 59.0514 13.656 58.9038 13.6867C58.7556 13.7186 58.6138 13.7342 58.4795 13.7342C58.2908 13.7342 58.1096 13.7116 57.9348 13.667C57.7594 13.6218 57.6048 13.5523 57.4699 13.4579C57.3356 13.3635 57.2251 13.2424 57.14 13.0941C57.0555 12.9458 57.0121 12.7691 57.0121 12.5617H55.1956C55.2141 13.0286 55.3189 13.4173 55.5122 13.7273C55.7044 14.0372 55.951 14.2863 56.252 14.4751C56.5524 14.6634 56.8963 14.7984 57.2824 14.8795C57.6673 14.96 58.0621 15.0006 58.4656 15.0006C58.8691 15.0006 59.2488 14.9623 59.6303 14.8865C60.0118 14.81 60.3504 14.6773 60.6462 14.4885C60.9432 14.3002 61.1816 14.0511 61.3663 13.7412C61.5498 13.4307 61.6418 13.0472 61.6418 12.5889C61.6418 12.2651 61.5793 11.994 61.4537 11.7744L61.4526 11.7738ZM65.2476 5.20565L61.6141 14.825H63.7402L64.4933 12.6828H68.087L68.8129 14.825H71.0073L67.4143 5.20565H65.247H65.2476ZM65.0462 11.1071L66.2977 7.57734H66.3243L67.5359 11.1071H65.0462ZM77.6157 8.80315C77.3558 8.46194 77.0281 8.18793 76.6333 7.98169C76.2386 7.77488 75.7679 7.67176 75.2209 7.67176C74.7896 7.67176 74.3954 7.75692 74.0366 7.92724C73.6765 8.09813 73.3813 8.37215 73.1486 8.74928H73.1214V7.85946H71.3037V17.2639H73.2163V13.963H73.2423C73.4756 14.3048 73.7743 14.5626 74.1384 14.737C74.5008 14.9119 74.8985 15 75.3292 15C75.8409 15 76.2872 14.9004 76.6681 14.7034C77.0496 14.5059 77.3679 14.2405 77.6238 13.908C77.8796 13.5755 78.0695 13.1943 78.1963 12.7633C78.3207 12.3317 78.3844 11.8827 78.3844 11.4158C78.3844 10.9217 78.3207 10.4484 78.1963 9.99421C78.0695 9.54119 77.8773 9.1432 77.6168 8.80199L77.6157 8.80315ZM76.3914 12.1846C76.337 12.4545 76.2449 12.6897 76.1153 12.8919C75.985 13.0941 75.8148 13.2586 75.603 13.3837C75.3928 13.5094 75.13 13.5732 74.8163 13.5732C74.5025 13.5732 74.2519 13.51 74.0366 13.3837C73.8212 13.2586 73.6481 13.0941 73.5179 12.8919C73.3876 12.6897 73.2939 12.4545 73.2354 12.1846C73.1769 11.9152 73.1486 11.6412 73.1486 11.3637C73.1486 11.0862 73.1746 10.7971 73.2285 10.5283C73.2829 10.259 73.3743 10.0209 73.5051 9.81346C73.6342 9.60723 73.8056 9.43923 74.0169 9.30889C74.2276 9.17854 74.4892 9.1125 74.8036 9.1125C75.1179 9.1125 75.3674 9.17854 75.5775 9.30889C75.7882 9.43865 75.9613 9.60897 76.0956 9.82042C76.2299 10.0319 76.326 10.2723 76.385 10.5411C76.4441 10.8105 76.4718 11.085 76.4718 11.3637C76.4718 11.6423 76.4458 11.9158 76.392 12.1846H76.3914ZM85.8113 9.99537C85.6857 9.54235 85.4929 9.14436 85.2324 8.80315C84.9719 8.46194 84.6454 8.18793 84.2507 7.98169C83.8553 7.77488 83.3841 7.67176 82.8371 7.67176C82.407 7.67176 82.0116 7.75692 81.6533 7.92724C81.2944 8.09813 80.998 8.37215 80.7647 8.74928H80.7387V7.85946H78.9216V17.2639H80.8325V13.963H80.8597C81.0929 14.3048 81.3916 14.5626 81.7546 14.737C82.1175 14.9119 82.5152 15 82.9459 15C83.457 15 83.9028 14.9004 84.2848 14.7034C84.6657 14.5059 84.9847 14.2405 85.24 13.908C85.4964 13.5755 85.6863 13.1943 85.8119 12.7633C85.9381 12.3317 86.0006 11.8827 86.0006 11.4158C86.0006 10.9217 85.9381 10.4484 85.8119 9.99421L85.8113 9.99537ZM84.0075 12.1846C83.9543 12.4545 83.8622 12.6897 83.732 12.8919C83.6012 13.0941 83.431 13.2586 83.2203 13.3837C83.0096 13.5094 82.7473 13.5732 82.433 13.5732C82.1187 13.5732 81.8675 13.51 81.6521 13.3837C81.4362 13.2586 81.2643 13.0941 81.1335 12.8919C81.0038 12.6897 80.9094 12.4545 80.851 12.1846C80.7925 11.9152 80.7636 11.6412 80.7636 11.3637C80.7636 11.0862 80.7908 10.7971 80.8446 10.5283C80.8984 10.259 80.9905 10.0209 81.1207 9.81346C81.2504 9.60723 81.4212 9.43923 81.6324 9.30889C81.8426 9.17854 82.1054 9.1125 82.4197 9.1125C82.734 9.1125 82.9824 9.17854 83.1931 9.30889C83.4044 9.43865 83.5769 9.60897 83.7117 9.82042C83.8466 10.0319 83.9433 10.2723 84.0012 10.5411C84.0602 10.8105 84.0886 11.085 84.0886 11.3637C84.0886 11.6423 84.0614 11.9158 84.0075 12.1846Z" fill="#25D366"/>
</g>
<defs>
<clipPath id="clip0_11132_44896">
<rect width="86" height="20" fill="white"/>
</clipPath>
</defs>
</svg>
